<svg version="1.1" id="Layer_1" xmlns="http://www.w3.org/2000/svg" xmlns:xlink="http://www.w3.org/1999/xlink" x="0px" y="0px"
	 width="100%" viewBox="0 0 509 99" enable-background="new 0 0 509 99" xml:space="preserve">
<path fill="#FDFDFD" opacity="1.000000" stroke="none" 
	d="
M346.000000,100.000000 
	C230.713882,100.000000 115.927765,100.000000 1.070821,100.000000 
	C1.070821,67.060905 1.070821,34.121628 1.070821,1.091173 
	C170.666641,1.091173 340.333313,1.091173 509.966248,1.091173 
	C509.966248,34.072128 509.966248,67.036087 509.966248,100.000000 
	C455.455017,100.000000 400.977509,100.000000 346.000000,100.000000 
M498.876038,13.828580 
	C498.876038,13.828580 498.665405,13.773484 498.665405,13.773484 
	C498.665405,13.773484 499.019867,13.990128 498.903442,14.484851 
	C498.646423,14.695868 498.389404,14.906885 497.649384,14.803267 
	C497.195709,14.191419 496.742035,13.579572 495.953979,12.344618 
	C495.811676,11.909507 495.669403,11.474395 495.993256,10.436043 
	C495.346436,9.335161 494.699646,8.234280 493.280731,6.887969 
	C492.203552,6.931180 491.126343,6.974391 489.528473,7.006070 
	C489.181274,7.003098 488.834076,7.000126 488.578705,6.275958 
	C487.788788,5.958277 486.998840,5.640596 485.656677,5.100813 
	C486.297058,6.997378 486.639862,8.012643 486.991516,9.015933 
	C486.991516,9.015933 486.995697,9.004712 486.208008,8.980081 
	C480.384094,11.634130 485.571167,14.739991 486.614777,16.507095 
	C487.728455,18.392874 491.096588,19.614979 493.566711,19.772135 
	C494.965027,19.861101 496.536499,17.228918 498.677826,15.859516 
	C499.296967,15.534246 499.916107,15.208977 500.535248,14.883706 
	C500.019348,14.596363 499.503418,14.309021 498.876038,13.828580 
M186.228989,31.489773 
	C186.140076,31.329823 186.051147,31.169872 185.575378,30.267935 
	C182.082199,30.518774 178.589035,30.769613 174.870911,31.492926 
	C174.913361,31.662113 174.955811,31.831299 174.802124,32.920094 
	C174.863281,48.612339 174.924438,64.304581 174.947403,80.699890 
	C175.321426,80.874924 175.695465,81.049957 176.933182,81.458099 
	C179.604431,81.368271 182.275681,81.278442 185.658569,81.212646 
	C185.805267,80.798981 185.951950,80.385307 186.330063,79.062019 
	C186.249496,63.381504 186.168930,47.700989 186.228989,31.489773 
M405.362000,3.019910 
	C404.552704,3.178487 403.743378,3.337064 402.934082,3.495644 
	C403.268982,3.673285 403.603912,3.850926 404.397400,4.545834 
	C427.971649,15.997189 451.545898,27.448544 475.644257,39.154480 
	C475.644257,31.896275 475.734467,25.433128 475.615906,18.973816 
	C475.519867,13.741905 475.172699,8.514606 474.037628,3.035566 
	C452.704285,3.074125 431.370941,3.112683 409.232849,3.004907 
	C408.146790,3.053558 407.060760,3.102209 405.362000,3.019910 
M149.691422,81.508400 
	C152.958206,81.508400 156.224976,81.508400 159.169830,81.508400 
	C159.169830,68.583656 159.793015,56.270054 158.979721,44.052063 
	C158.284225,33.603855 148.305679,26.909136 138.118591,29.523045 
	C133.570419,30.690060 129.490875,33.683392 125.256912,35.818474 
	C125.179993,34.463104 125.070045,32.525967 124.945953,30.339615 
	C121.543488,30.339615 118.259521,30.339615 114.510391,30.195559 
	C114.275970,30.827831 114.041550,31.460104 113.535378,32.985107 
	C113.621506,48.636005 113.707634,64.286903 113.779549,80.692574 
	C114.209564,80.863686 114.639580,81.034798 115.925552,81.465431 
	C118.594009,81.391678 121.262459,81.317932 124.628868,81.274124 
	C124.748695,80.850380 124.868515,80.426636 125.157188,79.078323 
	C125.169289,70.250862 125.055916,61.420914 125.230530,52.596664 
	C125.389359,44.570450 129.850922,39.897408 136.917999,39.916439 
	C143.645447,39.934555 147.667252,44.218025 147.855209,52.053787 
	C148.078735,61.373020 148.020538,70.699013 148.027908,80.639664 
	C148.332733,80.838684 148.637573,81.037704 149.691422,81.508400 
M5.936796,81.457108 
	C8.602143,81.381889 11.267491,81.306679 14.597281,81.263847 
	C14.694775,80.851181 14.792268,80.438515 15.029227,79.094406 
	C15.029227,64.210373 15.029227,49.326336 15.029227,33.079716 
	C22.618935,44.304527 29.398512,54.331192 36.558281,64.920143 
	C43.910904,54.059692 50.641205,44.118469 57.371506,34.177246 
	C57.681942,34.275028 57.992382,34.372810 58.302818,34.470592 
	C58.302818,49.999847 58.302818,65.529099 58.302818,81.199738 
	C62.518593,81.199738 66.225410,81.199738 69.981461,81.199738 
	C69.981461,58.561699 69.981461,36.288666 69.981461,13.588650 
	C68.303757,13.588650 66.790421,13.811352 65.366035,13.549744 
	C59.487961,12.470156 56.050163,14.932308 53.117828,20.083870 
	C48.206326,28.712471 42.450443,36.860435 36.727348,45.709415 
	C30.461210,36.011696 24.651217,26.757652 18.506197,17.731699 
	C17.282261,15.933953 14.930140,14.309440 12.825791,13.848264 
	C9.825145,13.190661 6.572925,13.680991 3.304683,13.680991 
	C3.304683,36.127602 3.304683,58.077023 3.169761,80.499771 
	C3.809114,80.726242 4.448468,80.952705 5.936796,81.457108 
M404.015350,70.533569 
	C420.295898,62.765823 436.576477,54.998077 453.689606,46.833096 
	C431.365356,36.152031 409.939941,25.901014 388.201111,15.500048 
	C388.201111,36.720264 388.201111,57.102859 388.201111,78.011391 
	C393.511963,75.509377 398.430481,73.192200 404.015350,70.533569 
M350.863953,50.127132 
	C350.351837,48.373348 349.912506,46.594391 349.315887,44.869831 
	C345.304108,33.272533 333.075500,26.486944 321.434845,30.094637 
	C317.301331,31.375696 313.760071,34.567776 309.729858,37.020493 
	C309.729858,28.400469 309.729858,19.780443 309.729858,10.659672 
	C305.659393,11.006881 301.916626,11.326134 298.346680,11.630649 
	C298.346680,34.831833 298.346680,58.037350 298.346680,81.308426 
	C302.292999,81.308426 305.896545,81.308426 309.580139,81.308426 
	C309.803070,79.078064 310.001373,77.094093 310.242310,74.683563 
	C323.122925,87.986931 339.651794,82.463196 346.249786,72.912003 
	C350.884735,66.202477 351.707458,58.805355 350.863953,50.127132 
M239.267227,64.877907 
	C238.953842,71.583443 241.121796,77.162071 247.383392,80.183952 
	C256.881683,84.767860 265.725952,83.072563 273.877747,76.061554 
	C274.121155,78.055145 274.312592,79.623268 274.520233,81.324066 
	C278.345795,81.324066 281.943146,81.324066 285.028534,81.324066 
	C285.028534,68.822472 285.848907,56.502132 284.771851,44.349957 
	C283.892609,34.429493 272.794769,27.935728 263.131622,30.029541 
	C262.238220,30.223131 261.254639,30.584261 260.424042,30.390713 
	C254.338226,28.972593 249.263184,31.649324 243.735382,33.761440 
	C244.905533,37.056477 245.879822,39.800014 246.840134,42.504169 
	C266.523560,37.233875 274.855042,40.142223 273.863281,50.865429 
	C266.899475,50.865429 259.949921,50.259758 253.156006,51.028824 
	C245.759155,51.866146 240.722763,56.279079 239.267227,64.877907 
M462.893158,60.321098 
	C443.116028,69.984238 423.338898,79.647377 402.234039,89.959251 
	C427.556641,89.959251 451.361084,89.959251 475.261810,89.959251 
	C475.261810,78.128540 475.261810,66.609467 475.261810,54.509209 
	C471.011566,56.509113 467.294281,58.258251 462.893158,60.321098 
M216.822159,23.545689 
	C216.822159,21.123455 216.822159,18.701221 216.822159,16.410988 
	C212.469025,16.410988 208.886200,16.410988 204.811584,16.410988 
	C204.811584,21.149754 204.811584,25.547693 204.811584,29.934679 
	C202.524872,30.085184 200.740601,30.202618 199.022522,30.315695 
	C197.494995,38.994068 197.619324,39.218742 204.987579,40.927635 
	C204.987579,49.317043 204.918884,57.785980 205.003235,66.253403 
	C205.139008,79.881516 215.059357,86.232643 227.803284,81.109825 
	C232.005615,79.420570 230.238525,76.077988 230.219650,73.441055 
	C230.196381,70.189949 227.663132,71.440315 225.780243,71.702057 
	C220.184372,72.479950 217.232391,71.161095 217.072723,67.005539 
	C216.736053,58.242741 216.970322,49.458012 216.970322,40.054653 
	C221.697952,40.054653 226.075363,40.054653 230.442841,40.054653 
	C230.442841,36.484730 230.442841,33.557117 230.442841,30.040138 
	C225.815048,30.040138 221.430267,30.040138 216.822113,30.040138 
	C216.822113,27.796915 216.822113,26.149698 216.822159,23.545689 
M98.024963,41.521706 
	C98.024963,37.784355 98.024963,34.047009 98.024963,30.457127 
	C93.635643,30.457127 90.063255,30.457127 86.386230,30.457127 
	C86.386230,47.532864 86.386230,64.263840 86.386230,81.241295 
	C90.325592,81.241295 94.039642,81.241295 98.024971,81.241295 
	C98.024971,68.103516 98.024971,55.308781 98.024963,41.521706 
M183.350983,22.189665 
	C187.276962,21.584663 188.000534,18.786163 186.152542,11.342593 
	C182.247696,11.342593 178.342850,11.342593 174.301208,11.342593 
	C174.301208,14.997236 174.301208,18.386745 174.301208,22.190317 
	C177.168579,22.190317 179.782867,22.190317 183.350983,22.189665 
M95.436333,22.173685 
	C96.371124,21.403252 97.999626,20.721767 98.111938,19.845875 
	C98.462776,17.109636 98.240715,14.299938 98.240715,11.419247 
	C93.843819,11.419247 89.956985,11.419247 86.167419,11.419247 
	C86.167419,15.150419 86.167419,18.556479 86.167419,22.175259 
	C89.156563,22.175259 91.804527,22.175259 95.436333,22.173685 
M490.416046,3.557289 
	C490.171387,3.500330 489.926697,3.443371 489.682037,3.386400 
	C489.836609,3.529165 489.991180,3.671929 490.416046,3.557289 
z"/>
<path fill="#434344" opacity="1.000000" stroke="none" 
	d="
M13.932838,81.231468 
	C11.267491,81.306679 8.602143,81.381889 5.375230,81.070107 
	C4.310671,80.464218 3.807678,80.245331 3.304684,80.026443 
	C3.304683,58.077023 3.304683,36.127602 3.304683,13.680991 
	C6.572925,13.680991 9.825145,13.190661 12.825791,13.848264 
	C14.930140,14.309440 17.282261,15.933953 18.506197,17.731699 
	C24.651217,26.757652 30.461210,36.011696 36.727348,45.709415 
	C42.450443,36.860435 48.206326,28.712471 53.117828,20.083870 
	C56.050163,14.932308 59.487961,12.470156 65.366035,13.549744 
	C66.790421,13.811352 68.303757,13.588650 69.981461,13.588650 
	C69.981461,36.288666 69.981461,58.561699 69.981461,81.199738 
	C66.225410,81.199738 62.518593,81.199738 58.302818,81.199738 
	C58.302818,65.529099 58.302818,49.999847 58.302818,34.470592 
	C57.992382,34.372810 57.681942,34.275028 57.371506,34.177246 
	C50.641205,44.118469 43.910904,54.059692 36.558281,64.920143 
	C29.398512,54.331192 22.618935,44.304527 15.029227,33.079716 
	C15.029227,49.326336 15.029227,64.210373 14.728527,79.693886 
	C14.262831,80.606064 14.097835,80.918770 13.932838,81.231468 
z"/>
<path fill="#0284CA" opacity="1.000000" stroke="none" 
	d="
M403.682190,70.704292 
	C398.430481,73.192200 393.511963,75.509377 388.201111,78.011391 
	C388.201111,57.102859 388.201111,36.720264 388.201111,15.500048 
	C409.939941,25.901014 431.365356,36.152031 453.689606,46.833096 
	C436.576477,54.998077 420.295898,62.765823 403.682190,70.704292 
z"/>
<path fill="#444445" opacity="1.000000" stroke="none" 
	d="
M350.916809,50.566975 
	C351.707458,58.805355 350.884735,66.202477 346.249786,72.912003 
	C339.651794,82.463196 323.122925,87.986931 310.242310,74.683563 
	C310.001373,77.094093 309.803070,79.078064 309.580139,81.308426 
	C305.896545,81.308426 302.292999,81.308426 298.346680,81.308426 
	C298.346680,58.037350 298.346680,34.831833 298.346680,11.630649 
	C301.916626,11.326134 305.659393,11.006881 309.729858,10.659672 
	C309.729858,19.780443 309.729858,28.400469 309.729858,37.020493 
	C313.760071,34.567776 317.301331,31.375696 321.434845,30.094637 
	C333.075500,26.486944 345.304108,33.272533 349.315887,44.869831 
	C349.912506,46.594391 350.351837,48.373348 350.916809,50.566975 
M311.964905,65.232117 
	C316.764008,71.627975 322.612793,73.834747 329.259186,71.757317 
	C335.126495,69.923401 339.119324,63.838619 339.232727,56.558353 
	C339.356598,48.606640 335.715912,42.503086 329.372223,40.254688 
	C323.631073,38.219845 318.414307,39.437614 314.285492,43.763622 
	C308.411041,49.918652 308.300354,57.084827 311.964905,65.232117 
z"/>
<path fill="#444445" opacity="1.000000" stroke="none" 
	d="
M239.345825,64.479004 
	C240.722763,56.279079 245.759155,51.866146 253.156006,51.028824 
	C259.949921,50.259758 266.899475,50.865429 273.863281,50.865429 
	C274.855042,40.142223 266.523560,37.233875 246.840134,42.504169 
	C245.879822,39.800014 244.905533,37.056477 243.735382,33.761440 
	C249.263184,31.649324 254.338226,28.972593 260.424042,30.390713 
	C261.254639,30.584261 262.238220,30.223131 263.131622,30.029541 
	C272.794769,27.935728 283.892609,34.429493 284.771851,44.349957 
	C285.848907,56.502132 285.028534,68.822472 285.028534,81.324066 
	C281.943146,81.324066 278.345795,81.324066 274.520233,81.324066 
	C274.312592,79.623268 274.121155,78.055145 273.877747,76.061554 
	C265.725952,83.072563 256.881683,84.767860 247.383392,80.183952 
	C241.121796,77.162071 238.953842,71.583443 239.345825,64.479004 
M272.340088,58.907608 
	C266.821503,58.900257 261.183380,58.241745 255.846008,59.221424 
	C253.845352,59.588650 251.245956,63.790180 251.290634,66.199593 
	C251.334915,68.587944 253.872971,72.024574 256.184937,73.055389 
	C261.492218,75.421700 266.946686,74.272430 271.409973,70.317154 
	C274.938782,67.189964 275.540924,62.465832 272.340088,58.907608 
z"/>
<path fill="#444445" opacity="1.000000" stroke="none" 
	d="
M123.930916,81.244179 
	C121.262459,81.317932 118.594009,81.391678 115.359810,81.056671 
	C114.460632,80.411217 114.127197,80.174515 113.793762,79.937805 
	C113.707634,64.286903 113.621506,48.636005 113.920113,32.406868 
	C114.528412,31.332293 114.751976,30.835953 114.975548,30.339615 
	C118.259521,30.339615 121.543488,30.339615 124.945953,30.339615 
	C125.070045,32.525967 125.179993,34.463104 125.256912,35.818474 
	C129.490875,33.683392 133.570419,30.690060 138.118591,29.523045 
	C148.305679,26.909136 158.284225,33.603855 158.979721,44.052063 
	C159.793015,56.270054 159.169830,68.583656 159.169830,81.508400 
	C156.224976,81.508400 152.958206,81.508400 149.253479,81.116409 
	C148.571838,80.490311 148.328125,80.256195 148.084412,80.022079 
	C148.020538,70.699013 148.078735,61.373020 147.855209,52.053787 
	C147.667252,44.218025 143.645447,39.934555 136.917999,39.916439 
	C129.850922,39.897408 125.389359,44.570450 125.230530,52.596664 
	C125.055916,61.420914 125.169289,70.250862 124.822220,79.673096 
	C124.301804,80.593300 124.116364,80.918739 123.930916,81.244179 
z"/>
<path fill="#0584CB" opacity="1.000000" stroke="none" 
	d="
M463.235077,60.164242 
	C467.294281,58.258251 471.011566,56.509113 475.261810,54.509209 
	C475.261810,66.609467 475.261810,78.128540 475.261810,89.959251 
	C451.361084,89.959251 427.556641,89.959251 402.234039,89.959251 
	C423.338898,79.647377 443.116028,69.984238 463.235077,60.164242 
z"/>
<path fill="#0585CB" opacity="1.000000" stroke="none" 
	d="
M474.936920,3.285264 
	C475.172699,8.514606 475.519867,13.741905 475.615906,18.973816 
	C475.734467,25.433128 475.644257,31.896275 475.644257,39.154480 
	C451.545898,27.448544 427.971649,15.997189 404.458008,4.259322 
	C405.003967,3.698825 405.489349,3.424840 405.974701,3.150857 
	C407.060760,3.102209 408.146790,3.053558 409.950043,3.342920 
	C431.647095,3.763804 452.626923,3.850660 473.606842,3.902451 
	C474.049713,3.903544 474.493530,3.500031 474.936920,3.285264 
z"/>
<path fill="#454546" opacity="1.000000" stroke="none" 
	d="
M216.822144,24.024084 
	C216.822113,26.149698 216.822113,27.796915 216.822113,30.040138 
	C221.430267,30.040138 225.815048,30.040138 230.442841,30.040138 
	C230.442841,33.557117 230.442841,36.484730 230.442841,40.054653 
	C226.075363,40.054653 221.697952,40.054653 216.970322,40.054653 
	C216.970322,49.458012 216.736053,58.242741 217.072723,67.005539 
	C217.232391,71.161095 220.184372,72.479950 225.780243,71.702057 
	C227.663132,71.440315 230.196381,70.189949 230.219650,73.441055 
	C230.238525,76.077988 232.005615,79.420570 227.803284,81.109825 
	C215.059357,86.232643 205.139008,79.881516 205.003235,66.253403 
	C204.918884,57.785980 204.987579,49.317043 204.987579,40.927635 
	C197.619324,39.218742 197.494995,38.994068 199.022522,30.315695 
	C200.740601,30.202618 202.524872,30.085184 204.811584,29.934679 
	C204.811584,25.547693 204.811584,21.149754 204.811584,16.410988 
	C208.886200,16.410988 212.469025,16.410988 216.822159,16.410988 
	C216.822159,18.701221 216.822159,21.123455 216.822144,24.024084 
z"/>
<path fill="#474748" opacity="1.000000" stroke="none" 
	d="
M98.024963,42.017876 
	C98.024971,55.308781 98.024971,68.103516 98.024971,81.241295 
	C94.039642,81.241295 90.325592,81.241295 86.386230,81.241295 
	C86.386230,64.263840 86.386230,47.532864 86.386230,30.457127 
	C90.063255,30.457127 93.635643,30.457127 98.024963,30.457127 
	C98.024963,34.047009 98.024963,37.784355 98.024963,42.017876 
z"/>
<path fill="#414142" opacity="1.000000" stroke="none" 
	d="
M174.985596,79.996826 
	C174.924438,64.304581 174.863281,48.612339 175.067596,32.382057 
	C175.407883,31.747791 175.565765,31.598402 175.543823,31.564114 
	C175.418152,31.367756 175.249756,31.198750 175.095856,31.020454 
	C178.589035,30.769613 182.082199,30.518774 185.612717,30.748478 
	C185.796158,31.492838 185.942261,31.756655 186.088379,32.020473 
	C186.168930,47.700989 186.249496,63.381504 185.955811,79.648041 
	C185.370010,80.552246 185.158478,80.870438 184.946930,81.188622 
	C182.275681,81.278442 179.604431,81.368271 176.390198,81.079468 
	C175.559998,80.466164 175.272781,80.231491 174.985596,79.996826 
z"/>
<path fill="#464647" opacity="1.000000" stroke="none" 
	d="
M182.874069,22.189991 
	C179.782867,22.190317 177.168579,22.190317 174.301208,22.190317 
	C174.301208,18.386745 174.301208,14.997236 174.301208,11.342593 
	C178.342850,11.342593 182.247696,11.342593 186.154022,11.342735 
	C188.000534,18.786163 187.276962,21.584663 182.874069,22.189991 
z"/>
<path fill="#414142" opacity="1.000000" stroke="none" 
	d="
M94.944412,22.174473 
	C91.804527,22.175259 89.156563,22.175259 86.167419,22.175259 
	C86.167419,18.556479 86.167419,15.150419 86.167419,11.419247 
	C89.956985,11.419247 93.843819,11.419247 98.240715,11.419247 
	C98.240715,14.299938 98.462776,17.109636 98.111938,19.845875 
	C97.999626,20.721767 96.371124,21.403252 94.944412,22.174473 
z"/>
<path fill="#E6E6E6" opacity="1.000000" stroke="none" 
	d="
M496.288330,12.967730 
	C496.742035,13.579572 497.195709,14.191419 497.856750,15.135033 
	C498.064087,15.466800 498.029999,15.822366 498.029999,15.822357 
	C496.536499,17.228918 494.965027,19.861101 493.566711,19.772135 
	C491.096588,19.614979 487.728455,18.392874 486.614777,16.507095 
	C485.571167,14.739991 480.384094,11.634130 486.618896,9.352507 
	C487.465942,11.190960 486.070648,14.177332 489.826721,13.340789 
	C490.440216,13.814607 491.193481,14.180161 491.416962,13.973315 
	C491.995148,13.438230 492.339691,12.650685 492.949402,11.694435 
	C494.077942,13.097760 494.873474,14.086998 496.288330,15.846362 
	C496.288330,14.173451 496.288330,13.570593 496.288330,12.967730 
z"/>
<path fill="#0179C6" opacity="1.000000" stroke="none" 
	d="
M474.487274,3.160418 
	C474.493530,3.500031 474.049713,3.903544 473.606842,3.902451 
	C452.626923,3.850660 431.647095,3.763804 410.352417,3.416088 
	C431.370941,3.112683 452.704285,3.074125 474.487274,3.160418 
z"/>
<path fill="#FCFCFC" opacity="1.000000" stroke="none" 
	d="
M489.725098,12.971732 
	C486.070648,14.177332 487.465942,11.190960 487.012756,9.364822 
	C486.995697,9.004712 486.991516,9.015933 487.231079,8.815496 
	C487.809418,8.075758 488.148132,7.536456 488.486877,6.997154 
	C488.834076,7.000126 489.181274,7.003098 489.733795,7.269598 
	C489.980011,7.704017 490.020905,7.874907 489.983490,8.451262 
	C489.845154,10.228394 489.785126,11.600063 489.725098,12.971732 
z"/>
<path fill="#383839" opacity="1.000000" stroke="none" 
	d="
M489.826721,13.340789 
	C489.785126,11.600063 489.845154,10.228394 490.261780,8.607086 
	C491.123047,9.198116 491.627655,10.038784 492.426239,10.921478 
	C493.116180,10.961752 493.512146,10.960002 494.176819,10.992321 
	C494.806061,11.030687 495.166595,11.034986 495.527100,11.039284 
	C495.669403,11.474395 495.811676,11.909507 496.121155,12.656177 
	C496.288330,13.570593 496.288330,14.173451 496.288330,15.846362 
	C494.873474,14.086998 494.077942,13.097760 492.949402,11.694435 
	C492.339691,12.650685 491.995148,13.438230 491.416962,13.973315 
	C491.193481,14.180161 490.440216,13.814607 489.826721,13.340789 
z"/>
<path fill="#7A7A7B" opacity="1.000000" stroke="none" 
	d="
M492.132263,10.879448 
	C491.627655,10.038784 491.123047,9.198116 490.340088,8.201622 
	C490.020905,7.874907 489.980011,7.704017 489.994141,7.275365 
	C491.126343,6.974391 492.203552,6.931180 493.672272,7.283662 
	C494.075592,8.042705 494.087372,8.406054 493.726990,8.749574 
	C492.947296,9.446310 492.539795,10.162876 492.132263,10.879448 
z"/>
<path fill="#474748" opacity="1.000000" stroke="none" 
	d="
M494.099152,8.769403 
	C494.087372,8.406054 494.075592,8.042705 494.058350,7.406377 
	C494.699646,8.234280 495.346436,9.335161 495.760193,10.737663 
	C495.166595,11.034986 494.806061,11.030687 494.323517,10.625139 
	C494.167358,9.739061 494.133270,9.254232 494.099152,8.769403 
z"/>
<path fill="#C9C9C9" opacity="1.000000" stroke="none" 
	d="
M488.532776,6.636556 
	C488.148132,7.536456 487.809418,8.075758 487.226685,8.821484 
	C486.639862,8.012643 486.297058,6.997378 485.656677,5.100813 
	C486.998840,5.640596 487.788788,5.958277 488.532776,6.636556 
z"/>
<path fill="#BDBDBE" opacity="1.000000" stroke="none" 
	d="
M498.353912,15.840940 
	C498.029999,15.822366 498.064087,15.466800 498.098236,15.292351 
	C498.389404,14.906885 498.646423,14.695868 498.951721,14.243301 
	C499.000000,14.001752 498.987518,14.021678 498.987518,14.021679 
	C499.503418,14.309021 500.019348,14.596363 500.535248,14.883707 
	C499.916107,15.208977 499.296967,15.534246 498.353912,15.840940 
z"/>
<path fill="#0179C6" opacity="1.000000" stroke="none" 
	d="
M405.668335,3.085382 
	C405.489349,3.424840 405.003967,3.698825 404.228699,4.000689 
	C403.603912,3.850926 403.268982,3.673285 402.934082,3.495643 
	C403.743378,3.337064 404.552704,3.178487 405.668335,3.085382 
z"/>
<path fill="#313132" opacity="1.000000" stroke="none" 
	d="
M3.237223,80.263107 
	C3.807678,80.245331 4.310671,80.464218 4.950743,80.931137 
	C4.448468,80.952705 3.809114,80.726242 3.237223,80.263107 
z"/>
<path fill="#343435" opacity="1.000000" stroke="none" 
	d="
M114.742966,30.267586 
	C114.751976,30.835953 114.528412,31.332293 114.055984,31.960505 
	C114.041550,31.460104 114.275970,30.827831 114.742966,30.267586 
z"/>
<path fill="#C9C9C9" opacity="1.000000" stroke="none" 
	d="
M490.280884,3.685991 
	C489.991180,3.671929 489.836609,3.529165 489.682037,3.386406 
	C489.926697,3.443371 490.171387,3.500330 490.280884,3.685991 
z"/>
<path fill="#313132" opacity="1.000000" stroke="none" 
	d="
M186.158676,31.755123 
	C185.942261,31.756655 185.796158,31.492838 185.806137,31.119473 
	C186.051147,31.169872 186.140076,31.329823 186.158676,31.755123 
z"/>
<path fill="#313132" opacity="1.000000" stroke="none" 
	d="
M174.983383,31.256691 
	C175.249756,31.198750 175.418152,31.367756 175.543823,31.564114 
	C175.565765,31.598402 175.407883,31.747791 175.165649,31.922253 
	C174.955811,31.831299 174.913361,31.662113 174.983383,31.256691 
z"/>
<path fill="#BDBDBE" opacity="1.000000" stroke="none" 
	d="
M499.009949,13.995939 
	C499.019867,13.990128 498.665405,13.773484 498.665405,13.773484 
	C498.665405,13.773484 498.876038,13.828580 498.931763,13.925129 
	C498.987518,14.021678 499.000000,14.001752 499.009949,13.995939 
z"/>
<path fill="#313132" opacity="1.000000" stroke="none" 
	d="
M14.265059,81.247658 
	C14.097835,80.918770 14.262831,80.606064 14.658794,80.159607 
	C14.792268,80.438515 14.694775,80.851181 14.265059,81.247658 
z"/>
<path fill="#343435" opacity="1.000000" stroke="none" 
	d="
M113.786652,80.315186 
	C114.127197,80.174515 114.460632,80.411217 114.931831,80.926918 
	C114.639580,81.034798 114.209564,80.863686 113.786652,80.315186 
z"/>
<path fill="#343435" opacity="1.000000" stroke="none" 
	d="
M124.279892,81.259155 
	C124.116364,80.918739 124.301804,80.593300 124.737793,80.135376 
	C124.868515,80.426636 124.748695,80.850380 124.279892,81.259155 
z"/>
<path fill="#282829" opacity="1.000000" stroke="none" 
	d="
M148.056152,80.330872 
	C148.328125,80.256195 148.571838,80.490311 148.878967,80.980576 
	C148.637573,81.037704 148.332733,80.838684 148.056152,80.330872 
z"/>
<path fill="#313132" opacity="1.000000" stroke="none" 
	d="
M174.966492,80.348358 
	C175.272781,80.231491 175.559998,80.466164 175.958344,80.962914 
	C175.695465,81.049957 175.321426,80.874924 174.966492,80.348358 
z"/>
<path fill="#313132" opacity="1.000000" stroke="none" 
	d="
M185.302765,81.200638 
	C185.158478,80.870438 185.370010,80.552246 185.840088,80.102844 
	C185.951950,80.385307 185.805267,80.798981 185.302765,81.200638 
z"/>
<path fill="#FDFDFD" opacity="1.000000" stroke="none" 
	d="
M311.754578,64.901367 
	C308.300354,57.084827 308.411041,49.918652 314.285492,43.763622 
	C318.414307,39.437614 323.631073,38.219845 329.372223,40.254688 
	C335.715912,42.503086 339.356598,48.606640 339.232727,56.558353 
	C339.119324,63.838619 335.126495,69.923401 329.259186,71.757317 
	C322.612793,73.834747 316.764008,71.627975 311.754578,64.901367 
z"/>
<path fill="#FBFBFB" opacity="1.000000" stroke="none" 
	d="
M272.749451,59.004921 
	C275.540924,62.465832 274.938782,67.189964 271.409973,70.317154 
	C266.946686,74.272430 261.492218,75.421700 256.184937,73.055389 
	C253.872971,72.024574 251.334915,68.587944 251.290634,66.199593 
	C251.245956,63.790180 253.845352,59.588650 255.846008,59.221424 
	C261.183380,58.241745 266.821503,58.900257 272.749451,59.004921 
z"/>
<path fill="#E6E6E6" opacity="1.000000" stroke="none" 
	d="
M493.726990,8.749574 
	C494.133270,9.254232 494.167358,9.739061 494.054810,10.591070 
	C493.512146,10.960002 493.116180,10.961752 492.426270,10.921473 
	C492.539795,10.162876 492.947296,9.446310 493.726990,8.749574 
z"/>
</svg>