<svg version="1.1" id="Layer_1" xmlns="http://www.w3.org/2000/svg" xmlns:xlink="http://www.w3.org/1999/xlink" x="0px" y="0px"
	 width="100%" viewBox="0 0 864 640" enable-background="new 0 0 864 640" xml:space="preserve">
<path fill="#000000" opacity="1.000000" stroke="none" 
	d="
M299.767639,487.305176 
	C270.861328,470.559814 247.148102,449.119141 232.794250,418.797882 
	C221.867981,395.717194 216.481964,371.198578 217.914856,345.657257 
	C220.033707,307.889435 233.778503,275.045166 260.353333,247.532990 
	C281.598785,225.538162 305.414673,207.074707 331.662292,191.580704 
	C333.188293,190.679886 335.050079,190.120193 335.876617,187.494812 
	C327.886230,188.622421 320.570587,191.035049 313.259766,193.330948 
	C274.952240,205.361038 240.931870,224.385666 212.964157,253.765320 
	C193.618408,274.087738 182.778366,298.072479 179.177963,325.651520 
	C174.871429,358.639435 180.036163,389.928406 195.892731,419.286804 
	C198.941132,424.930908 202.409607,430.348114 205.703461,435.902374 
	C203.709961,437.072388 203.012634,435.738617 202.290604,435.050079 
	C178.485367,412.350525 161.032822,385.945343 154.381821,353.176422 
	C148.374435,323.578552 153.767792,295.612000 166.447113,268.757507 
	C181.835052,236.166214 206.308060,211.485855 235.723022,191.566193 
	C278.055786,162.898651 324.787598,145.599365 375.453827,138.506042 
	C400.623810,134.982208 425.879883,133.594376 451.156830,134.854004 
	C521.710449,138.369919 587.362061,157.637726 644.693237,199.993042 
	C678.406128,224.899582 702.881958,257.223999 712.288635,298.998535 
	C720.837952,336.965851 712.159485,372.020874 691.535156,404.319366 
	C672.069214,434.803802 645.050659,457.137543 613.601746,474.428833 
	C575.209717,495.537598 534.044617,508.212280 490.780243,514.054993 
	C460.004608,518.211060 429.121277,518.527771 398.140717,515.525269 
	C369.624817,512.761597 341.814941,507.600800 315.668121,495.415955 
	C310.389130,492.955841 305.277039,490.137512 299.767639,487.305176 
M640.453369,347.175568 
	C639.164551,337.127991 633.842590,329.211853 627.219360,321.947968 
	C606.580383,299.312469 580.015686,287.286011 551.153259,279.339050 
	C546.444275,278.042450 541.454285,277.623138 536.796387,275.226044 
	C538.811462,269.943024 539.630493,264.912903 537.431335,259.874481 
	C535.243286,254.861572 532.950195,253.994278 528.130798,256.166656 
	C515.833313,261.709747 503.519714,267.217499 491.245911,272.812561 
	C489.696991,273.518646 487.653717,273.731750 487.040863,275.756836 
	C487.176361,276.006500 487.232605,276.258179 487.337555,276.280457 
	C488.301544,276.484924 489.267151,276.719238 490.244995,276.815704 
	C513.973022,279.156464 536.809631,284.709473 558.028320,295.901093 
	C572.991516,303.793335 587.068115,312.834991 597.881104,326.274689 
	C616.562988,349.494843 611.300964,380.361084 586.171753,393.797119 
	C571.334290,401.730408 556.313477,409.290039 540.798462,415.832031 
	C522.073364,423.727600 503.439301,432.394012 483.659760,436.809906 
	C452.609802,443.742004 421.072479,447.924805 389.078827,443.330566 
	C363.944946,439.721375 341.567474,430.624023 324.280243,411.195831 
	C323.234039,410.020081 322.462585,408.326172 320.331879,408.239594 
	C318.101044,411.775330 319.846832,415.374847 320.360443,418.853973 
	C323.778046,442.005646 341.074005,458.800781 364.053040,461.811737 
	C380.461700,463.961761 396.603058,461.765839 412.695862,459.163818 
	C434.743927,455.598816 456.022430,448.814056 477.554443,443.095062 
	C482.333405,441.825745 487.027130,440.005219 492.224854,440.843262 
	C518.469055,445.074585 544.695740,449.440491 571.001892,453.252563 
	C586.600281,455.512970 600.164185,451.856903 608.849731,437.156982 
	C615.473572,425.946533 621.095337,414.258636 625.968323,402.199585 
	C626.445557,401.018646 627.189819,399.776245 626.006897,398.097229 
	C622.521484,399.401489 618.959717,400.710632 615.415161,402.064545 
	C592.706116,410.738892 569.707336,418.599609 546.732422,426.527069 
	C543.809509,427.535553 540.985596,428.062714 539.221191,424.614044 
	C540.568848,422.456818 542.660034,422.132416 544.450684,421.371246 
	C552.878174,417.788940 561.416016,414.454315 569.759094,410.687103 
	C595.874817,398.894775 621.757141,386.651672 646.353577,371.827148 
	C658.487854,364.513702 666.776794,354.320740 671.107483,340.992676 
	C674.575623,330.319397 673.561462,320.277924 665.341492,311.771149 
	C662.448608,308.777374 659.723145,305.617096 656.758362,302.698303 
	C643.567322,289.712006 627.726379,280.418793 612.039978,270.950684 
	C593.161011,259.555603 574.330322,248.231033 562.230103,228.760910 
	C559.226746,223.928299 554.629089,220.418442 549.157715,218.285461 
	C514.518860,204.781982 479.245148,193.390396 442.642181,186.502563 
	C439.557037,185.922012 437.479065,184.649338 435.810425,182.146500 
	C431.652344,175.909729 427.510864,169.656387 423.150024,163.561920 
	C419.144409,157.963837 414.419189,153.094955 408.100677,149.961990 
	C401.593628,146.735504 395.867157,147.203461 390.305969,152.271912 
	C380.917877,160.828140 376.495728,172.181305 372.391479,183.602814 
	C363.369110,208.710861 357.542725,234.640976 353.603302,261.005280 
	C353.366028,262.593109 352.792084,264.336151 354.651031,265.540009 
	C355.121429,265.513794 355.686737,265.635345 356.089142,265.433014 
	C357.723480,264.611328 359.370148,263.786072 360.900787,262.790710 
	C372.688873,255.125092 385.316864,249.120224 398.428162,244.167862 
	C440.095184,228.429459 483.535278,224.793396 527.574463,225.858917 
	C543.072510,226.233871 555.986877,231.966629 564.470947,245.868607 
	C567.241272,250.408066 571.095886,254.257080 575.646362,257.175781 
	C583.217346,262.031799 590.795654,266.884766 598.506836,271.512360 
	C617.827942,283.107208 636.542847,295.549133 653.187622,310.829651 
	C659.589661,316.707031 665.249023,323.768890 664.057556,332.868896 
	C662.660034,343.541840 658.391541,353.480103 649.826965,360.727509 
	C647.046509,363.080353 643.946960,365.576263 639.124084,365.023529 
	C640.046326,359.219482 641.227783,353.680450 640.453369,347.175568 
z"/>
<path fill="#000000" opacity="1.000000" stroke="none" 
	d="
M665.919067,481.574341 
	C662.720215,471.567291 666.718140,462.629547 675.151550,460.172455 
	C683.875488,457.630737 692.476379,462.578735 694.816162,471.485168 
	C696.662720,478.514221 692.889160,486.123840 686.066711,489.129181 
	C678.644531,492.398712 671.144714,489.696899 665.919067,481.574341 
M673.641235,480.907623 
	C675.563721,475.945526 674.805969,470.978271 673.364075,465.935944 
	C676.603699,465.160553 679.628296,465.391449 682.495605,465.946930 
	C685.620544,466.552338 688.298950,469.173859 686.228699,472.007477 
	C682.152344,477.586823 686.535339,479.238678 689.477234,482.051025 
	C693.419861,475.411255 692.341492,468.801941 686.937317,465.153625 
	C681.007202,461.150238 673.853394,462.310303 669.804565,467.931946 
	C665.860474,473.408173 666.745544,479.978760 672.021545,484.391022 
	C677.014832,488.566833 682.783264,488.387939 687.241394,483.412079 
	C682.757019,483.926819 682.386658,478.835785 679.075500,477.957245 
	C677.409302,479.795013 680.402039,481.189392 678.818359,482.997070 
	C677.030151,482.935760 674.807190,484.403809 673.641235,480.907623 
M680.811035,472.334106 
	C682.139282,471.345459 683.108765,470.210602 681.413879,468.805847 
	C680.536316,468.078461 679.387085,468.346130 678.891479,469.340057 
	C678.188660,470.749512 677.854370,472.272919 680.811035,472.334106 
z"/>
<path fill="#000000" opacity="1.000000" stroke="none" 
	d="
M372.643280,215.817261 
	C376.973419,198.573746 382.174652,182.076965 391.020630,166.996277 
	C397.275574,156.332764 404.575104,155.716797 412.481049,165.297012 
	C416.925537,170.682693 420.803162,176.536194 424.935608,182.179321 
	C426.594452,184.444611 426.815491,186.382370 423.859467,187.825073 
	C400.267242,199.339340 384.904724,219.049850 371.367004,240.576767 
	C370.604095,241.789871 370.238800,243.394760 367.775787,243.971954 
	C368.085388,234.315308 370.546539,225.303223 372.643280,215.817261 
z"/>
</svg>