<svg version="1.1" id="Layer_1" xmlns="http://www.w3.org/2000/svg" xmlns:xlink="http://www.w3.org/1999/xlink" x="0px" y="0px"
	 width="100%" viewBox="0 0 403 125" enable-background="new 0 0 403 125" xml:space="preserve">
<path fill="#FEFDFD" opacity="1.000000" stroke="none" 
	d="
M294.000000,126.000000 
	C196.000015,126.000000 98.500023,126.000000 1.000017,126.000000 
	C1.000000,85.500015 1.040884,44.999908 0.916199,4.500308 
	C0.907015,1.517042 1.517969,0.916651 4.500008,0.918774 
	C136.499924,1.012761 268.499908,1.012754 400.499847,0.918806 
	C403.481476,0.916684 404.093506,1.516420 404.083954,4.500171 
	C403.957916,43.833096 403.957977,83.166695 404.083893,122.499619 
	C404.093445,125.482765 403.483948,126.095398 400.499817,126.084320 
	C365.166931,125.953300 329.833374,126.000000 294.000000,126.000000 
z"/>
<path fill="#73030A" opacity="1.000000" stroke="none" 
	d="
M57.999985,100.069893 
	C44.677395,100.069977 31.853767,99.982765 19.032990,100.135262 
	C16.054585,100.170692 15.057744,99.489677 15.078767,96.305382 
	C15.224974,74.158241 15.216693,52.009315 15.085510,29.861982 
	C15.067433,26.810003 15.828125,25.922436 18.947502,25.941380 
	C41.261318,26.076899 63.576569,26.061237 85.890686,25.953743 
	C88.659332,25.940405 89.583298,26.601057 89.568489,29.503267 
	C89.454666,51.817322 89.427727,74.132790 89.589249,96.446259 
	C89.613838,99.842819 88.266083,100.169701 85.476448,100.124413 
	C76.486374,99.978477 67.492439,100.069946 57.999985,100.069893 
z"/>
<path fill="#750A0F" opacity="1.000000" stroke="none" 
	d="
M200.078888,80.833984 
	C199.934616,83.529701 199.805664,85.756493 203.595871,87.628304 
	C198.748016,87.628304 195.558578,87.628304 192.366623,87.626862 
	C196.262177,83.022339 196.022095,61.197975 192.003784,58.794823 
	C192.717056,57.370842 194.234009,57.618454 195.391663,57.234180 
	C198.827072,56.093822 200.702606,56.857887 200.137131,61.034878 
	C199.815338,63.411884 200.078964,65.868141 200.078964,68.838081 
	C201.208023,68.275040 201.800537,68.050682 202.316498,67.710266 
	C204.926758,65.988113 207.395630,63.681419 210.876312,65.644356 
	C214.206543,67.522438 213.202423,70.846214 213.403122,73.695129 
	C213.589539,76.341217 213.617706,79.025429 213.394073,81.665619 
	C213.182678,84.161522 213.638809,86.063477 216.552841,87.052391 
	C213.533630,88.476883 210.627823,87.736992 207.832809,87.906349 
	C206.883926,87.963844 206.281631,87.351357 206.924881,86.338936 
	C209.630142,82.081116 207.624268,77.388458 208.154419,72.928024 
	C208.364319,71.161987 208.346832,68.790382 205.675018,69.014771 
	C203.280182,69.215904 200.533875,69.831711 200.147797,72.898827 
	C199.838867,75.353134 200.081238,77.876839 200.078888,80.833984 
z"/>
<path fill="#781115" opacity="1.000000" stroke="none" 
	d="
M123.772049,56.992668 
	C126.639999,57.895458 126.688049,59.881573 126.512840,61.946014 
	C126.421707,63.019810 126.972466,64.512962 125.371872,64.834648 
	C123.797150,65.151131 123.480232,63.662037 123.195793,62.626278 
	C122.173859,58.904980 119.403297,58.367268 116.202354,58.655041 
	C114.257072,58.829922 112.642311,59.712887 112.118172,61.750542 
	C111.555298,63.938801 112.343758,65.785133 114.289040,66.844574 
	C117.051918,68.349289 120.010094,69.497017 122.763771,71.016647 
	C129.765625,74.880646 129.827255,82.235565 122.917709,86.263680 
	C119.054985,88.515556 114.980156,89.648468 110.588936,87.835503 
	C109.523621,87.395668 108.348572,86.941055 107.566864,86.153084 
	C105.918671,84.491661 106.113075,82.197052 106.065750,80.066887 
	C106.047768,79.257088 106.802330,79.165077 107.517357,79.168114 
	C109.827560,79.177910 109.715271,81.269272 110.553413,82.577744 
	C112.371872,85.416656 115.120689,86.348282 118.312874,85.857620 
	C120.694969,85.491478 122.217110,83.890236 122.516647,81.530960 
	C122.941948,78.180962 120.805733,76.370644 118.086479,75.068703 
	C115.692863,73.922676 113.164864,72.997841 110.919579,71.613144 
	C105.280693,68.135551 105.334602,61.776093 111.034103,58.359726 
	C114.866608,56.062462 118.981041,54.956509 123.772049,56.992668 
z"/>
<path fill="#781216" opacity="1.000000" stroke="none" 
	d="
M235.205536,59.033775 
	C240.529007,55.938416 245.595230,54.958462 251.234619,57.305115 
	C255.201889,58.955963 254.093460,61.992607 254.057724,64.839577 
	C254.048080,65.607269 253.442856,65.938866 252.667175,65.848343 
	C251.737671,65.739868 251.174057,65.219910 250.945847,64.320602 
	C249.744843,59.587543 246.474655,57.905087 241.938995,58.546551 
	C236.971176,59.249130 235.203506,62.974876 234.450439,67.329262 
	C233.577484,72.376846 233.899704,77.367393 236.667740,81.806198 
	C240.132095,87.361595 246.970505,87.558380 250.231018,82.466484 
	C251.192749,80.964584 250.907867,78.157784 253.843323,78.477730 
	C254.659897,78.566727 254.800659,79.389511 254.554367,80.035797 
	C253.697327,82.284729 254.949677,85.122826 251.339142,86.569107 
	C242.330704,90.177612 234.718231,88.586823 230.315460,81.427147 
	C225.808411,74.097878 227.609329,65.335526 235.205536,59.033775 
z"/>
<path fill="#781115" opacity="1.000000" stroke="none" 
	d="
M162.856445,84.453873 
	C165.687714,84.017281 168.956207,83.668861 168.698181,80.633400 
	C168.329941,76.301544 171.320312,71.161568 166.061920,67.528648 
	C166.607300,67.144531 167.056885,66.634644 167.609940,66.467834 
	C174.045242,64.526886 174.049530,64.540588 174.049622,71.361946 
	C174.049683,74.520752 174.186844,77.687531 174.004593,80.835800 
	C173.861771,83.302811 174.195984,85.345558 176.875198,86.540947 
	C174.183090,86.879494 171.561920,90.550056 169.340240,85.808235 
	C168.416763,83.837234 167.034698,85.937500 166.116089,86.461823 
	C159.003159,90.521667 155.784973,88.710251 155.627762,80.411987 
	C155.583679,78.085281 155.576660,75.756012 155.631516,73.429779 
	C155.688828,70.999115 155.968170,68.512283 152.592667,67.880287 
	C154.062515,65.681046 156.107483,66.212730 157.770782,65.716431 
	C160.345276,64.948257 160.946457,66.136154 160.863388,68.495827 
	C160.728973,72.314911 160.804031,76.142395 160.838287,79.965904 
	C160.852798,81.585579 160.507965,83.379494 162.856445,84.453873 
z"/>
<path fill="#781115" opacity="1.000000" stroke="none" 
	d="
M313.651428,68.457901 
	C318.214783,76.481163 316.344574,83.910179 309.247192,87.229355 
	C303.150635,90.080482 297.550690,87.693970 295.430542,81.341148 
	C293.655182,76.021507 295.497192,70.283028 299.954010,67.248810 
	C304.840607,63.922001 308.575775,64.174110 313.651428,68.457901 
z"/>
<path fill="#7A161A" opacity="1.000000" stroke="none" 
	d="
M376.241333,67.657394 
	C373.606354,68.400658 374.955231,73.560555 370.395020,71.984512 
	C369.236053,70.982704 369.583252,69.953293 369.793518,68.673965 
	C382.047516,61.951347 386.742493,63.696281 385.681213,78.184013 
	C385.560791,79.827888 385.652252,81.487274 385.593872,83.605225 
	C385.542236,84.070984 385.571930,84.535309 385.649445,84.754646 
	C385.977173,85.322021 386.227356,85.670067 386.760071,86.175247 
	C387.227936,86.425201 387.413208,86.518021 387.870056,86.761978 
	C388.141693,86.913109 388.044830,86.972595 388.071289,86.922302 
	C388.155273,87.036301 388.212769,87.200592 388.132660,87.586769 
	C384.521301,89.446266 382.014648,87.756493 379.335236,85.242447 
	C378.482147,84.275734 378.951355,83.549049 379.155060,82.791077 
	C379.445251,81.711296 379.968781,80.446045 378.449677,79.941391 
	C377.444366,79.607430 376.568970,80.235626 376.083588,81.174927 
	C375.380890,82.534698 376.158875,83.277206 377.300232,83.818245 
	C377.737854,84.025688 378.169800,84.240952 378.807861,84.769279 
	C377.703125,87.873260 375.551300,89.130630 372.448303,88.083817 
	C370.001617,87.258415 368.761017,85.506264 368.710510,82.830635 
	C368.647858,79.510010 370.693176,78.475899 373.412872,77.393555 
	C376.211761,76.279694 381.090332,77.232582 380.543732,71.293076 
	C380.633423,70.872803 380.460388,70.494293 380.486450,70.287842 
	C380.006805,68.785233 379.406616,67.599464 377.320190,67.612251 
	C376.924561,67.536339 376.458893,67.572464 376.241333,67.657394 
z"/>
<path fill="#83282B" opacity="1.000000" stroke="none" 
	d="
M319.534180,88.033066 
	C317.887695,88.007065 315.432434,87.512871 317.384735,86.398468 
	C320.190887,84.796669 319.279846,82.853142 319.332153,80.995918 
	C319.486420,75.518311 319.428711,70.033112 319.367584,64.551849 
	C319.341644,62.227280 320.493958,59.213226 316.245514,59.400185 
	C317.074738,57.490017 318.387512,57.557331 319.437500,57.216545 
	C323.225464,55.987137 325.154144,56.601089 324.839478,61.381870 
	C324.403992,67.997986 324.778229,74.664764 324.705017,81.308746 
	C324.677948,83.765091 324.502045,86.155113 328.836792,86.953400 
	C325.082794,88.667709 322.434692,87.617310 319.534180,88.033066 
z"/>
<path fill="#7A161A" opacity="1.000000" stroke="none" 
	d="
M177.660126,65.796127 
	C181.197540,64.980743 180.738937,60.216358 184.762680,60.086746 
	C184.280838,64.105827 186.801605,65.807640 190.551971,66.043182 
	C189.450317,68.882225 185.429916,65.995552 185.346451,69.159187 
	C185.220215,73.943542 184.652069,78.779060 185.722351,83.535774 
	C185.916840,84.400108 186.711990,84.721397 187.586121,84.948448 
	C188.474945,85.179321 190.257629,83.775856 190.113251,86.028084 
	C190.026031,87.388588 188.552429,87.656960 187.547012,88.078453 
	C183.924011,89.597343 180.737076,87.839127 180.305069,83.901108 
	C179.998444,81.105942 180.099167,78.250732 180.206100,75.429451 
	C180.338715,71.930992 180.582291,68.465088 177.660126,65.796127 
z"/>
<path fill="#802125" opacity="1.000000" stroke="none" 
	d="
M351.934143,69.178131 
	C353.319305,67.869476 354.716919,66.688606 356.288635,65.824326 
	C360.399597,63.563732 364.047302,65.325279 364.481415,69.960350 
	C364.820068,73.576126 364.679749,77.243942 364.626648,80.886803 
	C364.589020,83.468613 364.158112,86.127945 367.892456,87.151527 
	C364.174377,88.481812 360.875580,87.779190 357.237000,88.026649 
	C360.864868,82.178162 359.405792,76.386330 358.904785,70.875969 
	C358.610596,67.640289 355.756744,69.069412 353.389130,69.935287 
	C352.610352,69.928062 352.289276,69.740509 351.934143,69.178131 
z"/>
<path fill="#781115" opacity="1.000000" stroke="none" 
	d="
M268.504608,69.371414 
	C265.770538,66.790245 263.507812,66.837486 262.416351,70.407722 
	C261.859802,72.228226 260.792023,72.159904 259.448303,72.138496 
	C258.350037,72.120995 257.547729,71.915092 257.514923,70.519806 
	C257.478180,68.956261 258.104156,68.112419 259.593811,67.609062 
	C261.316681,67.026894 262.919434,66.092857 264.637665,65.492966 
	C270.049805,63.603405 273.531921,65.831482 273.837921,71.479256 
	C274.017578,74.795258 273.869690,78.128746 273.877869,81.454361 
	C273.883850,83.894844 273.457733,86.560501 277.199127,87.247559 
	C273.671051,88.356407 270.366486,89.981773 268.340088,85.171600 
	C267.846497,84.926552 267.692719,84.746544 267.438385,84.225929 
	C267.378174,81.807884 268.007568,79.743027 267.442932,77.300949 
	C267.463623,76.718300 267.512360,76.487953 267.773376,75.975388 
	C269.140717,74.279770 268.639832,72.596626 268.826385,70.663910 
	C268.812775,70.106628 268.720917,69.898155 268.504608,69.371414 
z"/>
<path fill="#760E12" opacity="1.000000" stroke="none" 
	d="
M287.196899,72.583755 
	C285.330811,76.595535 286.282166,80.456543 286.225342,84.222740 
	C286.178772,87.310852 289.858765,84.796646 290.963715,87.471725 
	C286.703705,88.412056 282.594635,87.832726 278.207672,87.827080 
	C282.367310,83.490028 282.090424,70.029182 278.091034,67.605385 
	C284.459503,64.340195 285.302185,64.647385 286.533203,70.656425 
	C287.352570,71.167305 287.519714,71.656708 287.196899,72.583755 
z"/>
<path fill="#781216" opacity="1.000000" stroke="none" 
	d="
M146.141525,85.786163 
	C140.238235,89.692207 135.417114,88.989090 132.213638,84.079643 
	C128.954254,79.084488 130.047501,71.488991 134.544113,67.945358 
	C136.250473,66.600632 138.222168,65.794952 140.641846,65.183922 
	C141.336365,65.563423 141.510757,65.999687 141.379898,66.851532 
	C137.336273,70.308495 136.652328,74.477455 137.481689,79.091652 
	C138.142517,82.768105 139.948227,85.125198 144.499207,84.531265 
	C145.310745,84.774620 145.691193,85.066788 146.141525,85.786163 
z"/>
<path fill="#74090D" opacity="1.000000" stroke="none" 
	d="
M351.536835,68.729477 
	C352.141602,69.109451 352.440887,69.312836 352.869263,69.756348 
	C350.197998,73.332077 350.157135,83.893005 353.368622,87.614525 
	C349.746521,88.104050 346.541351,88.142609 342.986389,87.585709 
	C347.260529,83.966446 347.147400,69.940041 343.162354,67.960487 
	C347.608398,64.601845 350.225555,64.793983 351.536835,68.729477 
z"/>
<path fill="#74090D" opacity="1.000000" stroke="none" 
	d="
M332.824432,78.868484 
	C332.824615,76.402962 332.847382,74.403625 332.819794,72.404991 
	C332.777374,69.332138 332.762695,69.332344 329.923920,67.674591 
	C330.443817,66.349724 331.746185,66.464996 332.791809,66.114395 
	C336.600342,64.837364 338.616089,65.457520 338.099823,70.214394 
	C337.670959,74.165894 338.161316,78.208679 337.955109,82.196060 
	C337.834473,84.529205 338.330841,86.191444 340.669983,87.498093 
	C337.199585,87.498093 333.729156,87.498093 329.595551,87.498093 
	C333.739166,85.723785 332.752838,82.366554 332.824432,78.868484 
z"/>
<path fill="#781115" opacity="1.000000" stroke="none" 
	d="
M146.600159,86.046555 
	C145.909622,85.851387 145.545807,85.572624 145.016006,84.988831 
	C144.104538,83.616760 144.356491,82.431992 144.525986,81.295815 
	C145.272491,76.291924 144.493698,71.687668 141.062164,67.350220 
	C141.000259,66.578987 141.000183,66.181236 141.000183,65.485168 
	C146.103653,64.404762 149.096085,67.179016 150.881073,71.436371 
	C153.071045,76.659676 151.564545,81.706131 146.600159,86.046555 
z"/>
<path fill="#781216" opacity="1.000000" stroke="none" 
	d="
M267.588623,75.738815 
	C267.988586,75.930885 267.991516,76.168617 267.997009,76.762955 
	C267.637726,78.326553 266.583710,78.847321 265.657288,79.504486 
	C262.817291,81.519051 263.102905,83.047989 266.709290,84.233116 
	C267.204376,84.530495 267.380585,84.684685 267.581787,85.189209 
	C262.532471,89.558098 257.759583,88.866875 256.977295,83.921654 
	C256.524261,81.057938 257.249481,78.674919 260.566650,77.834755 
	C262.804504,77.267967 264.985229,76.475822 267.588623,75.738815 
z"/>
<path fill="#781216" opacity="1.000000" stroke="none" 
	d="
M130.302124,47.917000 
	C128.242096,45.918797 126.518303,43.763905 124.030548,40.653999 
	C124.030548,44.368332 124.030548,47.031670 124.030548,49.695007 
	C123.639427,49.688293 123.248314,49.681576 122.857193,49.674858 
	C122.857193,46.228916 122.895355,42.782177 122.823883,39.337719 
	C122.810158,38.676216 122.435509,37.939903 123.419159,37.901203 
	C123.998459,37.878414 124.808693,38.102909 125.146996,38.516933 
	C126.934196,40.704128 128.604431,42.986904 130.676895,45.179829 
	C131.796906,46.137520 131.289581,46.959835 130.302124,47.917000 
z"/>
<path fill="#802125" opacity="1.000000" stroke="none" 
	d="
M152.042419,47.732254 
	C151.795914,49.972710 150.895569,50.913361 149.756210,48.691662 
	C148.273956,45.801323 147.276703,42.663292 146.048691,39.640804 
	C145.759064,38.927982 145.050568,38.076328 146.394165,37.841763 
	C147.253479,37.691746 148.358322,37.434361 148.747787,38.827942 
	C149.359894,41.018227 150.068588,43.181519 150.848785,45.720993 
	C151.480637,46.404934 151.828415,46.854343 152.042419,47.732254 
z"/>
<path fill="#83282B" opacity="1.000000" stroke="none" 
	d="
M176.461136,44.642792 
	C174.599854,46.241844 179.155746,51.369289 173.104370,49.764511 
	C174.197983,46.598526 173.726578,43.315838 173.620010,40.092785 
	C173.563568,38.384945 173.806046,37.604179 176.040771,37.791996 
	C177.535156,39.930664 177.729889,42.065536 176.461136,44.642792 
z"/>
<path fill="#7C1A1E" opacity="1.000000" stroke="none" 
	d="
M287.288208,72.766068 
	C286.966461,72.449509 286.957214,71.969421 286.932312,71.129532 
	C287.929932,69.271614 288.976929,67.794907 289.947296,66.269447 
	C290.948273,64.695854 292.490234,64.971962 293.961548,64.996788 
	C295.199249,65.017662 295.231415,65.934494 294.973419,66.727539 
	C294.507568,68.159462 294.850555,70.310173 292.310699,70.156570 
	C290.252380,70.032082 289.014099,71.485619 287.288208,72.766068 
z"/>
<path fill="#802125" opacity="1.000000" stroke="none" 
	d="
M188.151657,39.684139 
	C188.775726,42.178833 190.879074,42.255848 192.333313,43.192181 
	C194.778748,44.766716 194.868362,46.588200 192.261765,49.790516 
	C192.736282,45.725384 190.444824,44.983490 188.375031,43.807919 
	C185.442352,42.142242 185.467819,40.891773 188.151657,39.684139 
z"/>
<path fill="#690000" opacity="1.000000" stroke="none" 
	d="
M208.809631,38.302307 
	C209.752289,38.047905 210.496597,38.023830 211.550751,38.416222 
	C210.891479,41.898911 211.558533,45.032661 211.660248,48.564423 
	C211.184265,49.585453 210.390076,49.479126 209.273804,49.210358 
	C209.043091,45.956989 209.144485,42.918011 209.125031,39.437767 
	C208.873230,38.841881 208.742249,38.687256 208.809631,38.302307 
z"/>
<path fill="#7C1A1E" opacity="1.000000" stroke="none" 
	d="
M224.161865,42.646286 
	C226.899048,44.659286 223.915314,47.471592 225.522064,49.457272 
	C225.775452,49.770397 224.260330,49.933289 223.532547,49.938683 
	C222.336349,49.947556 222.527100,49.458023 222.818237,48.474155 
	C223.690247,45.527344 222.304489,43.053810 220.809906,40.623402 
	C220.327545,39.839031 218.697906,38.849625 220.382629,37.962273 
	C221.648010,37.295784 222.344421,38.330044 222.681213,39.666435 
	C222.914490,40.592049 223.604431,41.402569 224.161865,42.646286 
z"/>
<path fill="#7C1A1E" opacity="1.000000" stroke="none" 
	d="
M165.124878,43.735962 
	C161.660492,43.957153 163.258942,46.504086 163.077759,47.953888 
	C162.906067,49.327736 162.699738,50.168373 161.103561,49.959118 
	C158.299850,49.591568 160.989182,48.458286 160.909286,47.745850 
	C160.615784,45.128323 160.898132,42.451885 160.742172,39.810703 
	C160.672058,38.623283 160.739517,37.891586 162.547546,37.819275 
	C163.157089,38.026844 163.294968,38.224491 163.325073,38.767178 
	C163.248779,40.502243 162.009735,42.216030 164.609314,43.040344 
	C165.082443,43.186932 165.167160,43.343784 165.124878,43.735962 
z"/>
<path fill="#83282B" opacity="1.000000" stroke="none" 
	d="
M243.127289,49.277069 
	C238.394165,46.242531 238.028259,43.326813 241.813858,39.073822 
	C242.568451,41.875809 241.012283,44.799023 242.867004,47.632420 
	C243.113937,48.301956 243.235367,48.587250 243.127289,49.277069 
z"/>
<path fill="#73030A" opacity="1.000000" stroke="none" 
	d="
M336.713837,61.969765 
	C333.699921,62.421993 332.195404,61.780060 332.683502,58.725174 
	C333.096558,56.140034 335.187927,56.593948 336.399475,57.018497 
	C339.160767,57.986092 338.307465,60.022949 336.713837,61.969765 
z"/>
<path fill="#690000" opacity="1.000000" stroke="none" 
	d="
M201.143616,49.583042 
	C200.514374,49.814289 200.097885,49.861359 199.370178,49.852623 
	C198.850998,49.660637 198.643021,49.524452 198.633789,49.072762 
	C198.830688,45.828491 198.828842,42.899727 198.704041,39.547344 
	C198.559540,38.882931 198.537994,38.642139 198.744247,38.119194 
	C199.426865,37.847855 199.881668,37.858662 200.677429,37.884338 
	C201.152298,38.077911 201.286224,38.256615 201.311890,38.752323 
	C201.136200,42.057472 201.068741,45.045612 201.023590,48.481602 
	C201.149384,49.085926 201.252899,49.242397 201.143616,49.583042 
z"/>
<path fill="#690000" opacity="1.000000" stroke="none" 
	d="
M137.778046,38.153854 
	C138.432236,37.871937 138.887222,37.864239 139.683594,37.847221 
	C140.177765,38.024929 140.330536,38.211956 140.452545,38.759922 
	C140.334412,42.042442 140.247055,44.964020 140.164062,48.322613 
	C140.300629,48.969852 140.432831,49.180080 140.252869,49.593567 
	C139.522797,49.833088 139.104874,49.869339 138.378693,49.836479 
	C137.928131,49.644630 137.785828,49.521889 137.799072,49.164062 
	C137.964661,45.935249 137.974686,42.941517 137.890778,39.508858 
	C137.724182,38.855972 137.651520,38.642021 137.778046,38.153854 
z"/>
<path fill="#781115" opacity="1.000000" stroke="none" 
	d="
M115.671715,41.512512 
	C116.419838,40.108864 113.915649,38.354126 115.993378,37.974014 
	C118.670212,37.484299 117.003044,39.771217 117.018219,40.639431 
	C117.053658,42.666508 117.613884,44.796349 115.671715,46.820103 
	C115.671715,45.174923 115.671715,43.529747 115.671715,41.512512 
z"/>
<path fill="#7A161A" opacity="1.000000" stroke="none" 
	d="
M110.163422,49.184357 
	C105.834435,46.700333 108.628189,42.304001 107.646339,38.703392 
	C107.441246,37.951286 108.446465,37.908283 109.039085,37.906406 
	C110.178665,37.902802 110.089226,38.590508 110.049889,39.503994 
	C109.944405,41.953941 110.030968,44.412155 110.089035,47.314903 
	C110.225197,48.087997 110.313553,48.413277 110.163422,49.184357 
z"/>
<path fill="#8A393E" opacity="1.000000" stroke="none" 
	d="
M180.069885,42.908497 
	C179.577118,46.204216 182.870758,47.293896 183.426956,49.812187 
	C179.480576,50.894688 179.417328,46.977604 177.353226,45.142914 
	C176.583221,43.709526 177.348679,43.089214 178.679855,42.504166 
	C179.308792,42.505035 179.557785,42.566460 180.069885,42.908497 
z"/>
<path fill="#690000" opacity="1.000000" stroke="none" 
	d="
M258.343994,43.887383 
	C258.149841,45.560726 258.162994,46.861771 258.215393,48.551350 
	C257.796722,49.343910 257.265228,49.504494 256.285278,49.204285 
	C256.692169,45.329578 254.685516,41.373356 257.550232,37.930016 
	C258.152008,38.149250 258.303802,38.329746 258.357849,38.850227 
	C258.218262,40.148701 258.176392,41.107189 258.122070,42.425941 
	C258.256836,43.029163 258.404053,43.272121 258.343994,43.887383 
z"/>
<path fill="#E8DADB" opacity="1.000000" stroke="none" 
	d="
M179.461182,42.769764 
	C178.260605,43.141476 177.285461,43.108494 177.035919,44.626854 
	C177.059296,44.970165 176.637207,45.049965 176.422455,45.046894 
	C176.456299,42.939560 175.305161,40.819714 176.386658,38.274094 
	C176.992310,37.811771 177.489365,37.798866 178.222351,37.869690 
	C180.293823,39.067204 181.460297,40.373371 179.461182,42.769764 
z"/>
<path fill="#AF7C7F" opacity="1.000000" stroke="none" 
	d="
M258.638550,39.157730 
	C258.211823,38.987705 258.163483,38.785194 258.057678,38.275715 
	C260.699860,37.222523 263.556702,36.023335 264.601837,40.079468 
	C263.019257,38.259933 260.951660,39.022564 258.638550,39.157730 
z"/>
<path fill="#83282B" opacity="1.000000" stroke="none" 
	d="
M179.454376,43.044060 
	C179.967361,41.462666 180.420990,39.928795 178.556137,38.301216 
	C182.572693,38.050148 183.329437,39.783901 180.638092,43.119579 
	C180.139542,43.142963 179.946091,43.096813 179.454376,43.044060 
z"/>
<path fill="#954F52" opacity="1.000000" stroke="none" 
	d="
M153.659515,41.674484 
	C154.715927,40.367580 152.530106,38.267120 154.840759,37.705021 
	C155.261353,37.602703 155.781754,37.910736 156.256088,38.029335 
	C155.663452,39.468361 155.075424,40.909363 154.461075,42.339050 
	C154.437088,42.394871 154.137238,42.390789 154.009247,42.327305 
	C153.872681,42.259541 153.787567,42.088020 153.659515,41.674484 
z"/>
<path fill="#690000" opacity="1.000000" stroke="none" 
	d="
M130.077209,48.442631 
	C130.322449,47.303238 130.679016,46.532784 131.037079,45.442730 
	C131.018738,43.386768 130.998901,41.650406 130.885498,39.491131 
	C130.842209,38.002914 131.249146,37.613331 132.295074,38.707718 
	C132.280945,42.185665 132.220901,45.266151 132.114532,48.345039 
	C132.033188,50.699142 131.081207,49.686028 130.077209,48.442631 
z"/>
<path fill="#C9AAAC" opacity="1.000000" stroke="none" 
	d="
M163.589539,39.120014 
	C163.205139,38.895164 163.192993,38.678112 163.100006,38.145126 
	C163.141068,37.720917 163.245117,37.563309 163.387543,37.511871 
	C165.118896,36.886551 166.864288,36.730682 168.505722,37.701767 
	C168.730377,37.834671 168.796783,38.835987 168.590439,39.000088 
	C167.117691,40.171223 165.507217,38.650124 163.589539,39.120014 
z"/>
<path fill="#AF7C7F" opacity="1.000000" stroke="none" 
	d="
M212.207275,38.898247 
	C211.860596,38.832687 211.727844,38.493393 211.845566,38.354378 
	C212.188431,37.996803 212.381454,37.645512 212.644089,37.581989 
	C213.993225,37.255703 215.298813,37.250763 215.844650,38.859379 
	C215.981903,39.263874 215.921616,40.035484 215.655518,40.227654 
	C214.033508,41.398945 213.930771,38.597366 212.207275,38.898247 
z"/>
<path fill="#AF7C7F" opacity="1.000000" stroke="none" 
	d="
M190.971069,36.984360 
	C192.598907,37.351505 193.444077,38.201485 192.527466,39.335289 
	C192.268906,39.655117 190.219055,39.075203 189.549606,38.374260 
	C188.731522,37.517712 189.938080,37.220013 190.971069,36.984360 
z"/>
<path fill="#73030A" opacity="1.000000" stroke="none" 
	d="
M249.430206,47.245590 
	C249.612839,45.060055 249.845276,43.043293 248.979675,40.632507 
	C249.095016,40.072304 249.268921,39.942177 249.765320,39.858295 
	C251.837479,42.096642 252.426346,44.393543 250.375916,47.025009 
	C250.032639,47.152275 249.613419,47.409733 249.430206,47.245590 
z"/>
<path fill="#83282B" opacity="1.000000" stroke="none" 
	d="
M186.427811,49.135010 
	C185.792435,48.159580 185.688904,46.887356 186.302658,46.757759 
	C187.322784,46.542366 188.000687,47.733303 188.137726,48.627224 
	C188.305130,49.719048 187.593491,49.993050 186.427811,49.135010 
z"/>
<path fill="#D4BABC" opacity="1.000000" stroke="none" 
	d="
M132.680481,39.057892 
	C132.179214,38.337929 131.782211,38.014755 130.903870,38.761452 
	C130.129883,38.947372 129.343262,38.606358 129.583328,37.931202 
	C130.101715,36.473267 131.495667,37.026985 132.503876,37.142933 
	C133.848068,37.297527 134.073502,38.054836 132.680481,39.057892 
z"/>
<path fill="#AF7C7F" opacity="1.000000" stroke="none" 
	d="
M165.060059,44.289955 
	C164.997879,43.971291 164.912857,43.500687 164.955292,43.265381 
	C165.171234,42.227791 165.701935,41.153687 166.391220,41.581417 
	C167.583939,42.321548 167.158310,43.920853 166.785126,44.924488 
	C166.320389,46.174339 165.639786,45.055511 165.060059,44.289955 
z"/>
<path fill="#954F52" opacity="1.000000" stroke="none" 
	d="
M152.343994,47.825485 
	C151.720535,47.576984 151.347748,47.133339 150.968079,46.387718 
	C152.316330,46.211655 151.867203,44.069561 153.393570,44.291527 
	C153.805847,45.529575 152.983093,46.536755 152.343994,47.825485 
z"/>
<path fill="#AF7C7F" opacity="1.000000" stroke="none" 
	d="
M208.821259,37.850136 
	C209.007965,38.071980 209.085220,38.534565 209.044708,38.765533 
	C207.927261,38.887058 206.260208,39.204586 206.252487,37.837704 
	C206.247330,36.925739 207.770203,37.444973 208.821259,37.850136 
z"/>
<path fill="#802125" opacity="1.000000" stroke="none" 
	d="
M258.499969,44.185127 
	C258.113617,44.014450 258.090485,43.769211 258.088501,43.155090 
	C258.434967,42.851761 258.767059,42.894188 259.084412,42.987076 
	C260.159729,43.301826 262.075653,42.162823 262.000214,44.493038 
	C261.938568,46.398502 261.286957,45.902222 260.604614,44.710075 
	C260.211487,44.023273 259.542206,44.025944 258.499969,44.185127 
z"/>
<path fill="#C19B9D" opacity="1.000000" stroke="none" 
	d="
M247.262466,38.553318 
	C245.819305,38.901962 243.901871,39.426750 243.768188,37.851059 
	C243.653076,36.494587 245.459930,37.053028 246.741028,37.232155 
	C247.144913,37.687714 247.299088,37.928482 247.262466,38.553318 
z"/>
<path fill="#A1696B" opacity="1.000000" stroke="none" 
	d="
M208.623886,49.001579 
	C209.664734,48.980507 210.387741,48.965042 211.477295,48.971458 
	C210.825485,51.310299 209.251953,50.091866 207.803986,49.611248 
	C207.778381,49.602741 207.785553,49.306339 207.862625,49.223709 
	C207.967392,49.111382 208.154343,49.075726 208.623886,49.001579 
z"/>
<path fill="#8A393E" opacity="1.000000" stroke="none" 
	d="
M255.620850,49.136471 
	C256.432007,48.996033 256.953613,49.005295 257.864929,48.977219 
	C258.578430,48.991096 258.997528,48.932961 259.206848,49.115456 
	C259.698303,49.543896 259.533112,50.004364 258.898102,49.951897 
	C257.694427,49.852451 256.278992,50.756374 255.620850,49.136471 
z"/>
<path fill="#8A393E" opacity="1.000000" stroke="none" 
	d="
M110.202232,49.847458 
	C109.953781,49.318188 109.982666,49.006214 110.074173,48.228481 
	C111.350685,48.364468 112.564560,48.966209 113.832253,49.594627 
	C112.742439,50.474258 111.589371,50.102722 110.202232,49.847458 
z"/>
<path fill="#FCF9FA" opacity="1.000000" stroke="none" 
	d="
M248.612030,48.124889 
	C248.895630,48.763905 248.872345,49.446625 248.064240,49.546173 
	C247.875595,49.569416 247.642136,49.229080 247.429306,49.056023 
	C247.709595,48.740986 247.989868,48.425949 248.612030,48.124889 
z"/>
<path fill="#D4BABC" opacity="1.000000" stroke="none" 
	d="
M137.849701,37.654144 
	C137.946274,38.077877 137.915283,38.276119 137.840561,38.772144 
	C137.354721,38.745411 136.595688,38.469288 136.537186,38.086201 
	C136.419510,37.315514 137.038223,37.151299 137.849701,37.654144 
z"/>
<path fill="#D4BABC" opacity="1.000000" stroke="none" 
	d="
M140.694550,39.094254 
	C140.388306,38.896938 140.354828,38.673012 140.173172,38.143494 
	C140.415649,37.176617 141.004517,36.998459 141.481842,37.589722 
	C141.962662,38.185333 141.547470,38.712036 140.694550,39.094254 
z"/>
<path fill="#D4BABC" opacity="1.000000" stroke="none" 
	d="
M198.819382,37.615929 
	C198.873886,38.041458 198.775711,38.245872 198.629318,38.787006 
	C197.859772,39.124172 197.284637,38.803276 197.318375,38.064510 
	C197.356186,37.236385 197.957367,37.102226 198.819382,37.615929 
z"/>
<path fill="#7C1A1E" opacity="1.000000" stroke="none" 
	d="
M369.759277,68.532913 
	C370.012299,69.296585 370.010284,70.222977 370.006287,71.496765 
	C368.540741,71.000618 369.291412,69.805420 369.759277,68.532913 
z"/>
<path fill="#D4BABC" opacity="1.000000" stroke="none" 
	d="
M201.465607,39.023693 
	C201.175476,38.873886 201.147278,38.678444 201.068726,38.191101 
	C201.348145,37.198563 201.917084,37.037189 202.356613,37.635628 
	C202.803848,38.244576 202.327225,38.706657 201.465607,39.023693 
z"/>
<path fill="#8A393E" opacity="1.000000" stroke="none" 
	d="
M243.165070,49.871395 
	C242.905502,49.403648 242.913208,49.125702 242.956726,48.432213 
	C243.911713,48.566383 244.830933,49.116104 245.750153,49.665817 
	C245.086029,50.433632 244.233643,50.097763 243.165070,49.871395 
z"/>
<path fill="#73030A" opacity="1.000000" stroke="none" 
	d="
M247.340942,39.042473 
	C247.063980,38.688740 247.056274,38.440090 247.019653,37.819195 
	C247.607391,37.728306 248.224045,38.009663 248.954971,38.612656 
	C249.038406,39.118496 249.007584,39.302692 248.756714,39.660271 
	C248.227859,39.604954 247.919022,39.376255 247.340942,39.042473 
z"/>
<path fill="#8A393E" opacity="1.000000" stroke="none" 
	d="
M140.183090,49.896194 
	C139.946655,49.616936 139.952606,49.437042 140.063492,49.008389 
	C140.525787,48.963531 140.883163,49.167435 141.240524,49.371330 
	C140.968842,49.579403 140.697159,49.787479 140.183090,49.896194 
z"/>
<path fill="#8A393E" opacity="1.000000" stroke="none" 
	d="
M198.568481,48.814129 
	C198.902008,48.923603 198.971466,49.089954 199.049957,49.526562 
	C198.639496,49.782909 198.220016,49.768997 197.800552,49.755085 
	C197.968521,49.460392 198.136475,49.165699 198.568481,48.814129 
z"/>
<path fill="#A1696B" opacity="1.000000" stroke="none" 
	d="
M249.846573,47.019722 
	C249.845139,47.432682 249.657654,47.713093 249.212036,48.066185 
	C248.953918,48.138870 248.938034,48.002083 248.875519,48.033829 
	C248.850769,47.809013 248.887985,47.552376 249.085800,47.188553 
	C249.246994,47.081448 249.660522,46.887180 249.846573,47.019722 
z"/>
<path fill="#781216" opacity="1.000000" stroke="none" 
	d="
M267.676819,83.844238 
	C267.973938,84.102394 267.980225,84.303200 267.993378,84.805283 
	C268.000244,85.106567 267.890747,85.402374 267.748779,85.470963 
	C267.459167,85.405182 267.311523,85.270828 266.952881,84.923920 
	C266.813995,84.303841 267.035309,84.000290 267.676819,83.844238 
z"/>
<path fill="#7C1A1E" opacity="1.000000" stroke="none" 
	d="
M385.759918,84.732056 
	C385.397583,84.843750 385.269836,84.616180 385.442993,84.181137 
	C385.542236,84.070984 385.792877,84.490112 385.759918,84.732056 
z"/>
<path fill="#73030A" opacity="1.000000" stroke="none" 
	d="
M248.915131,39.146713 
	C249.357758,39.094494 249.646255,39.254696 250.011292,39.659718 
	C249.902008,39.986450 249.716187,40.068359 249.225739,40.176353 
	C248.921097,40.202431 248.657532,39.964756 248.597107,39.899204 
	C248.611465,39.675480 248.686234,39.517307 248.915131,39.146713 
z"/>
<path fill="#7C1A1E" opacity="1.000000" stroke="none" 
	d="
M388.069824,86.670059 
	C387.839294,86.927483 387.567627,86.843033 387.184692,86.496063 
	C387.361053,86.363922 387.679504,86.395462 388.069824,86.670059 
z"/>
<path fill="#7C1A1E" opacity="1.000000" stroke="none" 
	d="
M388.216492,87.797539 
	C387.995026,87.808647 388.020355,87.338051 388.059082,87.105034 
	C388.294891,87.054787 388.507324,87.225296 388.673676,87.432770 
	C388.700470,87.466194 388.521729,87.664398 388.216492,87.797539 
z"/>
<path fill="#8A393E" opacity="1.000000" stroke="none" 
	d="
M137.691681,49.027618 
	C137.954620,48.928978 138.096741,49.336540 138.083588,49.551956 
	C137.604843,49.805580 136.882584,50.100704 137.691681,49.027618 
z"/>
<path fill="#8A393E" opacity="1.000000" stroke="none" 
	d="
M201.199005,49.836460 
	C200.930847,49.767216 200.902557,49.336552 200.974213,49.133003 
	C201.370850,49.175236 202.264816,49.175488 201.199005,49.836460 
z"/>
<path fill="#7C1A1E" opacity="1.000000" stroke="none" 
	d="
M376.264160,67.757111 
	C376.147614,67.408821 376.373291,67.274750 376.812683,67.438217 
	C376.924561,67.536339 376.504486,67.771904 376.264160,67.757111 
z"/>
<path fill="#781216" opacity="1.000000" stroke="none" 
	d="
M268.437042,69.277283 
	C268.637329,69.257866 268.800873,69.520813 268.887756,70.078545 
	C268.668335,70.094032 268.531433,69.822807 268.437042,69.277283 
z"/>
<path fill="#7C1A1E" opacity="1.000000" stroke="none" 
	d="
M380.444031,70.294327 
	C380.741638,70.224373 380.827484,70.423576 380.701782,70.775894 
	C380.633423,70.872803 380.375519,70.507263 380.444031,70.294327 
z"/>
<path fill="#DFCDCE" opacity="1.000000" stroke="none" 
	d="
M65.823822,73.591591 
	C67.503990,75.361557 66.650818,77.300957 66.987289,79.501640 
	C67.213860,80.110130 67.382881,80.319954 67.321785,80.862000 
	C66.530014,83.159447 67.557907,85.401657 65.827347,87.937744 
	C64.318520,84.111816 65.308578,80.728981 65.000153,77.486687 
	C64.895836,76.390045 65.256599,75.054703 63.414917,75.067162 
	C61.617832,75.079330 61.952011,76.376778 61.801342,77.485283 
	C61.374325,80.626961 62.808296,83.950935 60.459618,86.962082 
	C58.962505,86.017868 58.175961,84.902649 58.198982,82.951668 
	C58.770710,79.742111 58.168468,76.773697 59.845078,73.796616 
	C61.902397,72.466919 63.640961,72.732193 65.823822,73.591591 
z"/>
<path fill="#E8DADB" opacity="1.000000" stroke="none" 
	d="
M55.674320,51.027012 
	C58.013855,50.630745 60.040073,50.237923 62.455032,49.746414 
	C63.178486,49.693264 63.474033,49.606037 63.967606,49.381123 
	C64.851944,49.374138 65.499077,49.372078 66.469269,49.388977 
	C67.385384,49.395912 67.962952,49.516682 68.796936,49.762493 
	C70.752464,50.450821 70.928993,51.599754 70.182602,52.990528 
	C69.378708,54.488468 68.505013,53.539635 67.382782,53.210194 
	C63.963673,52.206478 60.542847,52.531399 57.201927,54.600246 
	C56.812309,55.322094 56.458767,55.511063 55.712242,55.534218 
	C55.187672,55.496593 54.977337,55.484570 54.205055,55.224220 
	C53.547230,54.786327 53.451351,54.596767 53.295441,54.093880 
	C53.237797,53.353447 53.302856,52.936672 53.600910,52.258476 
	C54.198399,51.506458 54.739895,51.201702 55.674320,51.027012 
z"/>
<path fill="#EBDFDF" opacity="1.000000" stroke="none" 
	d="
M37.989586,49.400043 
	C38.867542,49.410362 39.506317,49.400597 40.464569,49.394722 
	C41.121208,49.301373 41.417980,49.372509 41.910912,49.633648 
	C45.114410,49.992458 47.626141,53.115749 51.363625,51.380226 
	C52.080505,52.434593 52.110016,53.225304 51.726639,54.400074 
	C51.226585,55.216377 50.794323,55.520721 49.861511,55.731834 
	C48.625641,55.728939 47.917690,55.406013 47.139275,54.443562 
	C43.351273,53.244656 39.811520,51.823780 36.083824,53.373341 
	C35.371471,53.669460 34.764481,53.713783 34.611950,52.844521 
	C34.376080,51.500301 34.293037,50.142445 36.535645,49.835392 
	C37.194881,49.696598 37.485970,49.568584 37.989586,49.400043 
z"/>
<path fill="#ECE1E1" opacity="1.000000" stroke="none" 
	d="
M55.157528,55.121796 
	C55.823673,55.021027 56.181450,55.014595 56.807030,54.989616 
	C61.157894,55.172508 65.184608,55.295269 69.130501,56.874367 
	C72.097504,58.061718 72.869331,59.666271 71.937492,62.656834 
	C68.346855,60.384930 65.109230,57.628395 60.419487,57.138695 
	C59.611515,57.375370 59.145927,57.477440 58.290936,57.443039 
	C56.846958,57.551258 56.029770,57.242313 55.389153,55.958298 
	C54.984367,55.624294 54.916763,55.420216 55.157528,55.121796 
z"/>
<path fill="#690000" opacity="1.000000" stroke="none" 
	d="
M64.575836,68.644646 
	C65.152466,69.337868 65.533951,69.783707 65.954117,70.534882 
	C64.450302,72.229439 62.589703,72.344933 60.265388,72.113541 
	C58.861038,71.831520 57.902439,71.454559 56.631508,70.854828 
	C55.616508,70.209084 55.522587,69.487282 55.263229,68.453583 
	C55.051949,67.938438 55.049080,67.716637 55.054066,67.162186 
	C55.697029,66.395523 56.368446,66.121849 57.154774,66.355583 
	C56.827065,65.738174 56.063362,65.955368 55.341095,65.358147 
	C55.092674,62.804798 51.052963,64.221664 51.335968,61.215622 
	C50.938271,60.834953 50.785439,60.645073 50.777496,60.120262 
	C51.519531,59.327827 52.202915,59.176392 53.275009,59.291130 
	C54.659851,59.807014 55.264080,60.757442 56.269463,61.713432 
	C56.933689,62.325726 57.400249,62.693920 58.221066,63.065735 
	C59.253551,63.478394 59.989655,63.820599 60.988495,64.338486 
	C62.688835,65.484238 63.639309,66.857224 64.575836,68.644646 
z"/>
<path fill="#EBDFDF" opacity="1.000000" stroke="none" 
	d="
M48.182091,57.394131 
	C42.005081,55.971207 37.503353,58.672005 33.422813,62.687984 
	C32.451138,58.792023 33.092972,57.187366 36.686279,56.165627 
	C39.329109,55.414154 42.089706,54.656750 45.353592,55.224342 
	C46.491348,55.450298 47.271851,55.342670 48.168003,56.017853 
	C48.382427,56.580952 48.387394,56.831631 48.182091,57.394131 
z"/>
<path fill="#EBDFDF" opacity="1.000000" stroke="none" 
	d="
M45.734329,45.617607 
	C46.990292,46.949287 48.860565,47.458664 48.873249,49.944580 
	C45.200825,48.794865 41.907982,47.193714 38.295002,46.932293 
	C36.841801,46.827148 36.964386,45.744659 36.976818,44.777763 
	C36.993366,43.490578 37.797844,43.112518 38.946777,43.224133 
	C41.286526,43.451416 43.421066,44.275120 45.734329,45.617607 
z"/>
<path fill="#DFCDCE" opacity="1.000000" stroke="none" 
	d="
M25.948990,82.968079 
	C26.627333,81.558075 24.117567,77.977196 28.295469,79.787193 
	C30.793335,80.869347 29.231770,77.325409 31.208271,77.257591 
	C33.333168,80.570526 31.775837,83.914665 31.310032,87.974937 
	C28.951559,85.625473 30.923225,82.908134 29.167320,81.044098 
	C26.427814,82.410225 29.148928,85.809738 26.695850,87.620911 
	C25.518293,86.222313 26.138186,84.705627 25.948990,82.968079 
z"/>
<path fill="#DFCDCE" opacity="1.000000" stroke="none" 
	d="
M46.323975,45.343292 
	C46.042107,45.765953 46.173225,45.785137 46.161362,45.820534 
	C47.882679,44.351681 46.329906,43.667587 45.324986,43.124607 
	C43.830101,42.316879 41.848366,41.311676 43.016232,39.623425 
	C44.399750,37.623436 45.607635,40.306828 46.964455,40.706066 
	C47.423988,40.841278 47.873417,41.010830 48.644180,40.767815 
	C49.121597,40.455654 49.282303,40.540363 49.637909,40.817673 
	C49.946144,41.154854 50.059471,41.299442 50.322548,41.678169 
	C50.553589,42.080486 50.634880,42.248669 50.814449,42.680748 
	C51.138794,43.670792 51.343693,44.402412 51.493568,45.442562 
	C51.448750,45.921017 51.393391,46.107883 51.112366,46.480598 
	C49.459747,46.084507 48.032791,45.502571 46.323975,45.343292 
z"/>
<path fill="#ECE1E1" opacity="1.000000" stroke="none" 
	d="
M59.675560,45.008778 
	C61.533871,44.467281 63.058811,43.906208 64.613205,43.444210 
	C65.786095,43.095608 66.931183,42.977840 67.024620,44.743107 
	C67.091240,46.001606 66.957947,47.024185 65.279701,46.950138 
	C62.051949,46.807732 59.378983,48.298149 56.412727,50.032520 
	C55.884983,49.960209 55.722828,49.817257 55.431049,49.375755 
	C55.272038,48.861511 55.242649,48.645817 55.351692,47.794434 
	C55.614841,46.979664 55.739567,46.800579 56.114254,46.411232 
	C57.290222,45.629959 58.253719,45.154846 59.675560,45.008778 
z"/>
<path fill="#ECE1E1" opacity="1.000000" stroke="none" 
	d="
M57.830742,59.815300 
	C65.070694,59.952759 69.369759,62.927887 68.923225,67.084549 
	C68.908478,67.221863 68.755241,67.456314 68.673859,67.453239 
	C68.438553,67.444298 68.206978,67.337082 67.719498,67.069763 
	C66.635208,66.749321 65.933060,66.266891 64.842094,65.952057 
	C64.368698,65.750946 64.191147,65.644836 63.787399,65.328247 
	C63.174084,64.649338 62.826641,64.147430 62.139412,63.546822 
	C60.816330,62.614021 59.529804,62.610191 58.022179,62.195587 
	C57.356812,61.392849 57.324032,60.737049 57.830742,59.815300 
z"/>
<path fill="#E8DADB" opacity="1.000000" stroke="none" 
	d="
M42.095886,62.746758 
	C39.565174,63.641884 38.210854,65.492813 36.643314,67.386108 
	C34.266403,62.104290 38.899334,61.723385 41.451588,60.231277 
	C42.757496,59.467815 44.577568,59.583836 46.542633,59.397984 
	C47.268559,59.791145 47.422184,60.172813 47.281193,60.926872 
	C46.823162,61.508724 46.461994,61.741222 45.766926,62.030312 
	C44.476475,62.513344 43.455647,62.715111 42.095886,62.746758 
z"/>
<path fill="#E8DADB" opacity="1.000000" stroke="none" 
	d="
M44.488823,73.727325 
	C44.884171,78.441238 44.884171,82.831543 44.884171,87.813454 
	C42.053242,85.514267 43.154552,82.871162 43.283916,80.770096 
	C43.519287,76.947220 42.995861,74.405487 38.368221,74.540230 
	C40.143509,72.401566 42.080814,72.533478 44.488823,73.727325 
z"/>
<path fill="#EFE5E5" opacity="1.000000" stroke="none" 
	d="
M56.322563,40.076859 
	C59.068752,42.257046 59.554764,37.994904 61.881279,39.548332 
	C63.255447,41.691742 60.972252,42.383675 58.887421,43.575943 
	C58.319218,45.064686 57.210957,45.634716 56.217598,46.752792 
	C55.966316,46.994610 56.011990,47.003590 56.011276,46.980328 
	C55.681072,47.307507 55.280594,47.509132 54.461273,47.446426 
	C53.770599,47.057983 53.517944,46.691658 53.363903,45.911552 
	C53.411442,44.723515 53.715828,43.915146 53.927166,42.771255 
	C54.034218,42.268887 54.085197,42.070232 54.251305,41.587624 
	C54.480339,41.135052 54.594246,40.966434 54.947598,40.610832 
	C55.368011,40.334610 55.548981,40.245365 56.322563,40.076859 
z"/>
<path fill="#C19B9D" opacity="1.000000" stroke="none" 
	d="
M48.083504,57.857445 
	C47.961891,57.455379 47.951965,57.204815 47.913158,56.579212 
	C47.962509,55.762688 48.196346,55.440266 48.876541,55.079247 
	C49.468147,54.832237 49.796749,54.808735 50.361515,54.917511 
	C51.385033,54.435345 52.238132,54.195698 53.586861,54.751511 
	C53.977554,54.995739 54.059807,54.845249 54.142105,54.869324 
	C54.285103,55.173119 54.345802,55.452835 54.266960,56.138584 
	C52.584793,57.905430 55.017666,57.621525 54.956944,58.662350 
	C55.239037,59.463982 55.105183,59.887600 54.252563,60.114552 
	C53.209778,60.080376 52.533566,60.131599 51.514896,60.119884 
	C50.318558,60.571777 49.711819,60.063755 48.939884,59.200287 
	C48.581783,58.565140 48.388485,58.287037 48.083504,57.857445 
z"/>
<path fill="#DFCDCE" opacity="1.000000" stroke="none" 
	d="
M75.339996,80.898697 
	C74.991753,83.277588 74.855499,85.293091 74.719246,87.308586 
	C72.618973,84.993996 73.004173,82.312019 72.810226,79.807480 
	C72.735939,78.848183 73.379852,76.846886 75.023170,79.441750 
	C75.232216,80.074455 75.392105,80.304886 75.339996,80.898697 
z"/>
<path fill="#D4BABC" opacity="1.000000" stroke="none" 
	d="
M75.516022,81.223495 
	C75.116531,81.025826 75.105057,80.789566 75.082947,80.198669 
	C76.304314,79.656158 77.536308,79.468307 78.902802,79.259941 
	C78.987617,82.040207 79.466660,84.723724 78.612946,87.581154 
	C75.493797,86.024025 78.720581,82.438759 75.516022,81.223495 
z"/>
<path fill="#D4BABC" opacity="1.000000" stroke="none" 
	d="
M35.841942,80.225937 
	C40.440342,78.970200 41.141014,80.598198 39.141205,87.419434 
	C36.545799,85.938972 39.637173,82.440567 36.482872,81.189209 
	C35.949188,80.992729 35.806709,80.779747 35.841942,80.225937 
z"/>
<path fill="#F2E9EA" opacity="1.000000" stroke="none" 
	d="
M48.188667,84.356766 
	C50.508984,81.518410 49.561047,78.196663 49.792156,74.675179 
	C49.532825,73.810249 49.575623,73.427597 50.378448,73.099319 
	C50.815041,73.232460 50.897606,73.377922 51.080864,73.753197 
	C51.245266,74.150482 51.308979,74.317955 51.326820,74.750259 
	C51.243366,77.378471 51.205780,79.741852 51.224571,82.544937 
	C51.311527,83.161293 51.342102,83.337929 51.276440,83.765656 
	C50.823891,84.431297 50.467575,84.845848 49.989319,85.511719 
	C48.404778,86.552238 48.717911,85.198120 48.188667,84.356766 
z"/>
<path fill="#F2E9EA" opacity="1.000000" stroke="none" 
	d="
M53.721596,74.238930 
	C53.816418,73.990128 54.011562,73.535263 54.111412,73.308823 
	C54.426929,72.987343 54.642605,72.892296 55.137760,73.011047 
	C56.777935,75.509010 55.835651,78.136322 56.642414,80.807968 
	C56.904533,81.262360 57.029007,81.432312 57.369102,81.838043 
	C57.725468,82.237183 57.866207,82.400543 58.152092,82.855545 
	C58.281811,83.594627 58.143105,84.002495 57.657814,84.605820 
	C56.855122,85.227455 56.244217,85.487938 55.227661,85.530159 
	C54.603157,85.196655 54.312439,84.899750 53.904785,84.306068 
	C53.733952,83.841904 53.680050,83.674515 53.683998,83.249748 
	C53.782928,80.624153 53.824013,78.255920 53.803474,75.447685 
	C53.703484,74.834358 53.665127,74.661049 53.721596,74.238930 
z"/>
<path fill="#8A393E" opacity="1.000000" stroke="none" 
	d="
M54.009247,44.924232 
	C54.287689,45.568634 54.261425,45.922016 54.129383,46.520004 
	C54.369705,47.400875 55.006664,47.510376 55.872524,47.856403 
	C56.118038,48.062836 56.066593,48.528728 56.032120,48.760540 
	C55.597214,49.409779 55.369019,49.955212 54.713928,50.502281 
	C54.082027,50.724548 53.750774,50.903099 53.199295,51.289062 
	C52.748642,51.431847 52.554512,51.436985 52.147640,51.243141 
	C52.076504,49.737328 51.906555,48.499092 51.009003,47.030281 
	C50.886700,46.666443 50.764111,46.305172 50.879425,46.153221 
	C51.546539,44.849083 52.399639,44.293694 54.009247,44.924232 
z"/>
<path fill="#C19B9D" opacity="1.000000" stroke="none" 
	d="
M44.919983,73.696899 
	C43.028065,74.011177 41.171959,73.971405 38.848663,73.959183 
	C38.298271,73.469826 38.215073,72.952911 38.161087,72.174820 
	C40.109665,71.132141 42.106129,71.644569 44.451977,71.745308 
	C44.876415,72.399040 44.916103,72.870949 44.919983,73.696899 
z"/>
<path fill="#E8DADB" opacity="1.000000" stroke="none" 
	d="
M49.099476,40.742958 
	C49.000549,40.432491 48.895004,40.333805 48.927948,40.352375 
	C48.060417,39.700596 47.633926,38.502331 48.249123,37.847713 
	C49.176758,36.860634 49.915848,38.085537 50.461620,38.760406 
	C51.060555,39.500992 51.469551,40.395180 52.011520,41.568439 
	C52.286999,42.323002 52.227100,42.696701 51.624691,43.150894 
	C50.903183,43.134556 50.584660,42.882519 50.208542,42.220795 
	C50.030968,41.956348 50.007259,42.012451 50.037651,42.014332 
	C49.735779,41.733570 49.445908,41.412628 49.099476,40.742958 
z"/>
<path fill="#DDC5C7" opacity="1.000000" stroke="none" 
	d="
M53.922409,60.379379 
	C54.183372,59.826385 54.480759,59.623619 54.899410,59.174965 
	C55.790279,59.067814 56.559887,59.206551 57.704613,59.458660 
	C58.058071,60.178585 58.036404,60.785133 58.211548,61.914486 
	C58.368359,62.632919 58.328358,62.828552 58.048729,63.204201 
	C57.412952,63.456120 57.015759,63.458984 56.401840,63.193871 
	C55.928432,61.754898 53.750214,62.420483 53.922409,60.379379 
z"/>
<path fill="#DFCDCE" opacity="1.000000" stroke="none" 
	d="
M35.969059,79.599380 
	C36.030209,80.105286 36.040760,80.325470 36.071487,80.875687 
	C34.316158,85.004509 34.133553,81.117012 33.249004,80.616608 
	C34.760231,79.185677 33.021259,76.715393 34.881840,75.321358 
	C36.649357,76.349541 35.655651,77.992966 35.969059,79.599380 
z"/>
<path fill="#C9AAAC" opacity="1.000000" stroke="none" 
	d="
M45.306847,65.284668 
	C46.418724,66.144341 48.304939,64.156265 50.057934,65.860641 
	C48.844826,67.407570 47.132828,67.809792 45.520229,67.690346 
	C44.893524,67.643921 45.430496,66.263924 45.306847,65.284668 
z"/>
<path fill="#D4BABC" opacity="1.000000" stroke="none" 
	d="
M55.061806,65.439331 
	C57.357399,65.220100 59.712357,65.192398 60.203377,69.002670 
	C58.360500,68.441238 57.529995,66.409454 55.429832,66.885269 
	C55.062511,66.458824 55.063103,66.088097 55.061806,65.439331 
z"/>
<path fill="#EBDFDF" opacity="1.000000" stroke="none" 
	d="
M55.732994,40.910225 
	C55.418083,41.014118 55.488377,41.041172 55.451790,41.050110 
	C54.812954,41.410141 54.293179,41.314232 53.867416,40.320320 
	C54.432709,38.628700 55.097786,37.478714 56.652561,37.477249 
	C56.747246,37.477161 56.843075,38.682079 56.926773,39.661961 
	C56.915176,39.997604 56.966873,39.933205 57.007996,39.936947 
	C56.741680,40.259655 56.406635,40.546692 55.732994,40.910225 
z"/>
<path fill="#C9AAAC" opacity="1.000000" stroke="none" 
	d="
M64.785217,68.594223 
	C62.526546,68.996666 62.664200,66.394493 60.968239,65.408096 
	C60.866104,64.913795 60.927834,64.701088 61.206177,64.236572 
	C61.616211,63.877811 61.809631,63.770859 62.333588,63.667629 
	C63.053383,63.884319 63.382820,64.165634 63.869064,64.763733 
	C64.096176,65.000183 64.006783,64.994263 64.011108,64.949677 
	C64.436790,65.361710 64.794571,65.849716 64.744781,66.809181 
	C64.721481,67.505562 64.760468,67.900986 64.785217,68.594223 
z"/>
<path fill="#AF7C7F" opacity="1.000000" stroke="none" 
	d="
M66.289215,73.408264 
	C64.501465,73.760170 62.731884,73.845009 60.525208,73.992844 
	C59.971390,73.799240 59.854675,73.542648 59.905880,72.897232 
	C61.491913,71.126717 63.203602,71.487198 64.988365,72.114410 
	C65.730309,72.261032 66.087097,72.564407 66.289215,73.408264 
z"/>
<path fill="#DDC5C7" opacity="1.000000" stroke="none" 
	d="
M50.688980,72.789032 
	C50.446911,73.270462 50.232288,73.515945 49.963005,74.036713 
	C49.488575,73.912910 49.176212,73.524048 48.784348,73.248100 
	C47.379528,72.258842 48.021015,71.433762 48.885433,70.509018 
	C49.241367,70.128250 49.072033,69.276199 50.084648,69.702118 
	C51.748703,70.402039 49.360947,71.795700 50.688980,72.789032 
z"/>
<path fill="#690000" opacity="1.000000" stroke="none" 
	d="
M56.818325,84.465973 
	C57.356670,83.958557 57.657253,83.768425 57.920319,83.308632 
	C58.201298,82.920128 58.519806,82.801292 59.310173,82.875740 
	C59.829857,84.157547 59.877670,85.246071 59.983704,86.658630 
	C59.274361,86.987213 58.506802,86.991760 57.355400,86.993423 
	C56.417271,86.329895 56.291107,85.593391 56.818325,84.465973 
z"/>
<path fill="#EFE5E5" opacity="1.000000" stroke="none" 
	d="
M65.428886,72.613678 
	C63.719471,71.971756 62.334679,72.037041 60.658344,72.626762 
	C59.506454,72.996635 59.142509,72.449631 58.961319,71.428207 
	C61.075222,71.054634 63.104393,71.018341 65.563179,70.911133 
	C67.342972,71.628929 66.784958,72.189430 65.428886,72.613678 
z"/>
<path fill="#7A161A" opacity="1.000000" stroke="none" 
	d="
M56.212830,47.293831 
	C55.703293,45.332798 57.219482,44.930706 58.366371,43.957241 
	C59.008690,44.076683 59.338638,44.284874 59.832428,44.739418 
	C58.817295,45.854866 57.638317,46.723957 56.212830,47.293831 
z"/>
<path fill="#DFCDCE" opacity="1.000000" stroke="none" 
	d="
M42.377579,65.922058 
	C42.203289,65.385223 42.327991,64.803543 42.678783,64.021561 
	C44.060410,62.277309 45.555706,61.774185 47.786373,62.540031 
	C47.804142,64.396767 46.137928,63.726215 45.066746,64.717331 
	C44.927452,65.059006 45.002884,65.043304 45.009880,65.005875 
	C44.236771,65.271362 43.456669,65.574280 42.377579,65.922058 
z"/>
<path fill="#C9AAAC" opacity="1.000000" stroke="none" 
	d="
M56.074234,72.786453 
	C55.538601,73.028305 55.273846,73.053482 54.610176,73.080528 
	C53.818771,71.557816 54.429432,70.227814 55.039169,68.527420 
	C55.844444,68.218956 55.920300,68.810997 56.060207,69.699966 
	C56.734608,70.806641 56.869217,71.661049 56.074234,72.786453 
z"/>
<path fill="#C19B9D" opacity="1.000000" stroke="none" 
	d="
M53.632290,40.030701 
	C54.170013,40.200584 54.461060,40.531879 55.083656,40.961113 
	C55.415203,41.059048 55.347801,41.358559 55.199615,41.398590 
	C54.274918,43.288048 53.965816,45.978001 51.081036,43.325035 
	C51.507648,42.763508 51.701591,42.553474 51.945049,42.097931 
	C52.503021,41.340328 52.944317,40.766216 53.632290,40.030701 
z"/>
<path fill="#83282B" opacity="1.000000" stroke="none" 
	d="
M51.903038,51.146595 
	C52.270897,51.002224 52.606895,50.960289 53.448200,50.867020 
	C53.936089,50.985794 53.918674,51.155907 53.835075,51.524742 
	C53.768887,51.723469 53.585152,52.006470 53.585152,52.006470 
	C53.585152,52.006470 53.747715,52.289055 53.851078,52.187073 
	C54.248260,52.567898 54.542084,53.050705 54.406731,54.264626 
	C53.145847,55.182693 52.337860,55.727432 51.025314,55.082741 
	C50.405582,54.018433 49.567146,52.740116 51.678356,52.213722 
	C51.749401,51.662411 51.871178,51.249031 51.903038,51.146595 
z"/>
<path fill="#DFCDCE" opacity="1.000000" stroke="none" 
	d="
M69.786835,87.173706 
	C68.954498,85.061798 68.730827,83.169685 69.845909,81.054947 
	C71.734276,82.597359 70.702026,84.503876 70.821320,86.533768 
	C70.481827,87.096657 70.284813,87.234825 69.786835,87.173706 
z"/>
<path fill="#8A393E" opacity="1.000000" stroke="none" 
	d="
M48.228745,62.537437 
	C46.660156,63.020210 45.151611,63.312912 43.273972,63.713440 
	C42.690983,63.568027 42.477085,63.314793 42.031971,62.953255 
	C42.682564,62.307758 43.564381,61.770569 44.763096,61.208763 
	C45.904453,61.705959 46.835228,61.413654 47.976761,61.739799 
	C48.240616,61.951630 48.288788,62.347366 48.228745,62.537437 
z"/>
<path fill="#ECE1E1" opacity="1.000000" stroke="none" 
	d="
M44.720623,71.557098 
	C42.897564,71.931618 40.958408,71.936111 38.604774,71.927109 
	C40.136395,69.976662 42.458164,71.356125 44.720623,71.557098 
z"/>
<path fill="#D4BABC" opacity="1.000000" stroke="none" 
	d="
M48.461552,58.938889 
	C49.370392,59.150990 49.965702,59.458744 50.866730,59.911724 
	C51.172440,60.056950 51.077652,60.536320 51.084373,60.780579 
	C50.625732,61.079445 50.160366,61.134060 49.343468,61.213600 
	C48.505116,61.431007 48.003605,61.483631 47.227543,61.113804 
	C46.978836,60.531742 46.956654,60.234932 46.910564,59.717110 
	C47.329350,59.340584 47.738686,59.187561 48.461552,58.938889 
z"/>
<path fill="#DFCDCE" opacity="1.000000" stroke="none" 
	d="
M35.552673,84.198792 
	C35.863346,85.475136 36.250347,86.532112 35.231590,87.195724 
	C35.033051,87.325050 34.148739,86.906845 34.154408,86.763969 
	C34.197174,85.686775 33.113544,84.079132 35.552673,84.198792 
z"/>
<path fill="#A1696B" opacity="1.000000" stroke="none" 
	d="
M42.022110,65.960983 
	C41.708530,66.862579 42.572289,68.263008 40.984650,68.681892 
	C40.791145,68.732956 40.340931,68.445015 40.273060,68.230751 
	C39.945133,67.195480 40.117683,66.347153 41.725796,66.030563 
	C42.078590,65.966911 42.011215,65.995842 42.022110,65.960983 
z"/>
<path fill="#8A393E" opacity="1.000000" stroke="none" 
	d="
M47.942398,84.496536 
	C49.309109,83.749138 48.963730,84.974617 49.580391,85.661255 
	C49.716328,86.474556 49.961926,87.711639 48.746323,87.367577 
	C47.597343,87.042366 48.059841,85.753380 47.942398,84.496536 
z"/>
<path fill="#690000" opacity="1.000000" stroke="none" 
	d="
M65.146156,67.069427 
	C64.461624,66.574829 64.240753,66.039536 64.017654,65.204666 
	C65.617935,64.054344 65.875084,66.099327 67.229630,66.580063 
	C66.846649,66.923637 66.228226,66.976181 65.146156,67.069427 
z"/>
<path fill="#FCF9FA" opacity="1.000000" stroke="none" 
	d="
M53.833206,51.419388 
	C54.480644,50.781960 54.903049,50.108250 55.661552,49.213444 
	C56.000355,49.177734 56.003063,49.363113 56.026455,49.825829 
	C56.047142,50.103161 55.997810,50.562103 55.992722,50.792835 
	C55.522511,51.301418 55.057392,51.579269 54.113396,51.847672 
	C53.634518,51.838223 53.608173,51.383110 53.833206,51.419388 
z"/>
<path fill="#8A393E" opacity="1.000000" stroke="none" 
	d="
M56.713806,84.087006 
	C57.047123,84.859711 57.038162,85.570740 57.000381,86.636154 
	C56.159855,87.017166 55.471458,86.788368 54.960945,85.772888 
	C55.386429,85.004143 55.878979,84.514732 56.713806,84.087006 
z"/>
<path fill="#954F52" opacity="1.000000" stroke="none" 
	d="
M48.856312,54.815399 
	C48.939743,55.275425 48.736572,55.647926 48.208836,56.112301 
	C47.319256,56.031116 46.754234,55.858055 45.978874,55.476837 
	C46.082592,55.057156 46.396652,54.845634 46.817177,54.371422 
	C47.472328,54.315117 48.021019,54.521496 48.856312,54.815399 
z"/>
<path fill="#781216" opacity="1.000000" stroke="none" 
	d="
M46.652798,60.895355 
	C47.422489,60.898949 47.877316,60.966850 48.662041,61.136642 
	C48.893360,61.461765 48.747574,61.648003 48.397602,61.874435 
	C47.329681,61.871796 46.418743,61.791965 45.293900,61.448143 
	C45.499306,61.109325 45.918617,61.034496 46.652798,60.895355 
z"/>
<path fill="#D4BABC" opacity="1.000000" stroke="none" 
	d="
M67.430496,81.149452 
	C67.080833,80.978683 67.069984,80.763138 67.051994,80.223953 
	C67.645477,80.086418 68.246117,80.272514 68.846748,80.458618 
	C68.487602,80.673973 68.128456,80.889320 67.430496,81.149452 
z"/>
<path fill="#D4BABC" opacity="1.000000" stroke="none" 
	d="
M69.482483,87.128548 
	C69.684502,86.956291 69.883125,86.938148 70.380287,86.939255 
	C70.473335,87.786079 69.967857,87.503487 69.482483,87.128548 
z"/>
<path fill="#954F52" opacity="1.000000" stroke="none" 
	d="
M58.118004,57.582119 
	C58.393497,57.292770 58.859192,57.159073 59.687859,57.089424 
	C59.469955,57.348240 58.889076,57.543003 58.118004,57.582119 
z"/>
<path fill="#A1696B" opacity="1.000000" stroke="none" 
	d="
M68.795914,49.733658 
	C68.457710,49.867306 67.865005,49.821877 67.032318,49.592194 
	C67.375359,49.456818 67.958389,49.505699 68.795914,49.733658 
z"/>
<path fill="#A1696B" opacity="1.000000" stroke="none" 
	d="
M41.966164,49.457886 
	C41.820763,49.680145 41.494057,49.705025 40.975700,49.564262 
	C41.117649,49.352581 41.451256,49.306541 41.966164,49.457886 
z"/>
<path fill="#A1696B" opacity="1.000000" stroke="none" 
	d="
M37.983971,49.312195 
	C37.941975,49.569298 37.655182,49.718468 37.122765,49.815819 
	C37.164486,49.577423 37.451832,49.390846 37.983971,49.312195 
z"/>
<path fill="#802125" opacity="1.000000" stroke="none" 
	d="
M53.599716,83.092651 
	C53.791550,83.159958 53.841263,83.327545 53.839417,83.752213 
	C53.677765,83.737175 53.567677,83.465050 53.599716,83.092651 
z"/>
<path fill="#83282B" opacity="1.000000" stroke="none" 
	d="
M51.332630,83.924973 
	C51.157532,83.840874 51.134857,83.665009 51.196564,83.236900 
	C51.410648,83.166954 51.562531,83.338806 51.656307,83.538017 
	C51.683868,83.596565 51.546715,83.732651 51.332630,83.924973 
z"/>
<path fill="#A1696B" opacity="1.000000" stroke="none" 
	d="
M63.965267,49.261070 
	C63.911942,49.518936 63.619076,49.661671 63.084991,49.726067 
	C63.137756,49.480465 63.431744,49.313206 63.965267,49.261070 
z"/>
<path fill="#83282B" opacity="1.000000" stroke="none" 
	d="
M51.424480,74.910713 
	C51.224747,74.846901 51.168549,74.678703 51.146950,74.246758 
	C51.310371,74.257446 51.439194,74.531891 51.424480,74.910713 
z"/>
<path fill="#C9AAAC" opacity="1.000000" stroke="none" 
	d="
M54.379898,56.393097 
	C54.117111,56.268330 54.106796,55.992046 54.160446,55.304581 
	C54.430309,54.924576 54.636211,54.955750 55.154007,55.007187 
	C55.465897,55.027454 55.264393,55.430756 55.158180,55.629562 
	C54.912102,55.966106 54.772240,56.103840 54.379898,56.393097 
z"/>
<path fill="#DFCDCE" opacity="1.000000" stroke="none" 
	d="
M70.488098,75.862717 
	C70.846664,77.514847 70.292725,77.537926 69.476425,76.230232 
	C69.819572,75.768089 70.022987,75.732567 70.488098,75.862717 
z"/>
<path fill="#D4BABC" opacity="1.000000" stroke="none" 
	d="
M70.730408,75.798874 
	C70.557396,76.011528 70.364983,75.994667 69.894363,75.890709 
	C69.881493,75.259941 70.249664,75.196899 70.730408,75.798874 
z"/>
<path fill="#802125" opacity="1.000000" stroke="none" 
	d="
M53.667282,74.082047 
	C53.842442,74.162529 53.868465,74.334938 53.818169,74.757507 
	C53.608948,74.830139 53.454704,74.663361 53.356495,74.468361 
	C53.327972,74.411736 53.459820,74.274338 53.667282,74.082047 
z"/>
<path fill="#F8F3F3" opacity="1.000000" stroke="none" 
	d="
M300.133362,75.189644 
	C300.766602,71.579369 300.738617,67.285057 305.041626,67.333206 
	C309.271454,67.380554 310.078613,71.573746 310.655060,75.011467 
	C310.975067,76.920151 310.810760,78.979454 310.490540,80.908760 
	C310.077209,83.399231 309.278351,86.004433 306.147491,86.132545 
	C303.113190,86.256721 301.900696,83.845200 301.144440,81.431763 
	C300.558594,79.562057 300.432587,77.548271 300.133362,75.189644 
z"/>
<path fill="#EFE5E5" opacity="1.000000" stroke="none" 
	d="
M379.012695,85.011566 
	C377.358978,84.460808 374.844086,86.331161 373.978394,83.450424 
	C373.487793,81.817711 373.472748,79.939674 375.395081,79.197800 
	C376.926300,78.606873 378.864166,76.333549 380.082245,78.139122 
	C381.241486,79.857452 381.314636,82.640663 378.939484,84.705215 
	C378.968262,85.086433 378.973969,85.009033 379.012695,85.011566 
z"/>
<path fill="#F2E9EA" opacity="1.000000" stroke="none" 
	d="
M268.128113,83.572716 
	C267.641541,84.016464 267.315460,84.131340 266.865662,84.478790 
	C264.860657,85.068420 262.706024,85.973297 262.078369,83.061058 
	C261.609131,80.883934 262.375732,79.268982 264.712524,78.605881 
	C265.634705,78.344208 266.489685,77.845558 267.687408,77.287193 
	C269.406036,79.099159 268.958252,81.166267 268.128113,83.572716 
z"/>
<path fill="#FCF9FA" opacity="1.000000" stroke="none" 
	d="
M140.636734,67.045853 
	C146.326172,70.654869 147.626328,76.139664 144.930969,84.291870 
	C141.200394,87.552368 138.789352,86.076599 137.050934,82.422523 
	C134.370804,76.789062 135.854950,69.808952 140.636734,67.045853 
z"/>
<path fill="#73030A" opacity="1.000000" stroke="none" 
	d="
M55.683022,73.431053 
	C55.873859,72.202156 55.944366,71.401199 56.073647,70.295517 
	C56.976803,70.177429 57.821186,70.364067 58.855808,70.820816 
	C59.389206,71.508324 59.732365,71.925713 60.225536,72.590034 
	C60.294441,73.032280 60.213326,73.227608 60.110153,73.739380 
	C60.029617,76.802238 59.971130,79.548637 59.847343,82.682037 
	C59.465450,83.067596 59.148861,83.066170 58.357536,83.051865 
	C57.882801,83.038971 57.420467,83.094063 57.204811,83.006378 
	C56.846485,82.807137 56.703815,82.695580 56.300545,82.660736 
	C54.610424,79.846260 55.540115,76.828239 55.683022,73.431053 
z"/>
<path fill="#FCF9FA" opacity="1.000000" stroke="none" 
	d="
M53.965614,52.082603 
	C53.750935,52.365200 53.547428,52.645313 53.343925,52.925426 
	C53.306080,52.780800 53.268230,52.636169 53.603104,52.234177 
	C53.975826,51.976814 54.008640,52.010349 54.030212,52.019936 
	C54.051788,52.029526 53.976791,52.080116 53.965614,52.082603 
z"/>
<path fill="#DDC5C7" opacity="1.000000" stroke="none" 
	d="
M61.841873,63.688026 
	C61.786068,64.353516 61.560940,64.642990 61.070091,65.029480 
	C59.918243,65.121376 59.055107,65.064362 58.294384,63.976990 
	C57.843334,63.701378 57.674541,63.588081 57.726486,63.264397 
	C57.947220,63.054008 57.968662,63.031845 57.979866,63.021248 
	C59.306549,62.032093 60.529823,62.180050 61.841873,63.688026 
z"/>
<path fill="#D4BABC" opacity="1.000000" stroke="none" 
	d="
M57.654640,63.025043 
	C57.947220,63.054008 57.993435,63.433182 58.002785,63.623928 
	C57.431995,63.737293 56.851864,63.659916 56.228874,63.284019 
	C56.578033,62.989033 56.970047,62.992558 57.654640,63.025043 
z"/>
<path fill="#73030A" opacity="1.000000" stroke="none" 
	d="
M51.108223,42.664291 
	C53.083546,45.152546 53.718872,43.123562 54.825684,41.703209 
	C57.105209,42.526237 55.333149,43.513885 54.642193,44.876808 
	C53.388348,45.197422 52.417725,44.937298 51.317070,45.856724 
	C50.525047,44.726299 49.158756,43.879097 49.638962,42.147148 
	C50.343948,42.109917 50.656929,42.263489 51.108223,42.664291 
z"/>
<path fill="#73030A" opacity="1.000000" stroke="none" 
	d="
M48.651344,40.891926 
	C49.323792,40.739765 49.647038,41.047043 50.019165,41.685265 
	C49.245075,42.417007 48.659866,42.186295 48.651344,40.891926 
z"/>
<path fill="#690000" opacity="1.000000" stroke="none" 
	d="
M56.313797,47.764755 
	C55.510048,47.840919 54.902061,47.619007 54.158836,47.080853 
	C54.475574,46.745186 54.927540,46.725754 55.695034,46.831696 
	C56.176891,47.126934 56.343227,47.296803 56.313797,47.764755 
z"/>
<path fill="#83282B" opacity="1.000000" stroke="none" 
	d="
M62.025940,63.968033 
	C61.042854,63.299011 59.997799,62.756538 58.349319,62.967991 
	C57.965847,62.841766 57.940624,62.672882 57.958267,62.251457 
	C59.707981,60.628307 61.263245,61.439156 62.989342,62.615044 
	C63.023849,63.098038 62.881737,63.299271 62.380981,63.589561 
	C62.022339,63.678616 62.040680,63.872021 62.025940,63.968033 
z"/>
<path fill="#690000" opacity="1.000000" stroke="none" 
	d="
M62.279133,63.863678 
	C62.207668,63.416531 62.448639,63.224129 62.955605,62.999107 
	C63.969616,63.145622 64.534378,63.626667 64.403305,64.742889 
	C63.576092,64.683037 63.056011,64.365891 62.279133,63.863678 
z"/>
<path fill="#73030A" opacity="1.000000" stroke="none" 
	d="
M55.881634,41.367229 
	C55.742241,40.704845 56.066399,40.395573 56.719833,40.013493 
	C57.432732,40.778458 57.188786,41.367992 55.881634,41.367229 
z"/>
<path fill="#690000" opacity="1.000000" stroke="none" 
	d="
M56.257229,82.887589 
	C56.288502,82.394051 56.556511,82.353539 56.916557,82.767303 
	C56.817608,82.958366 56.646061,82.998039 56.257229,82.887589 
z"/>
<path fill="#ECE1E1" opacity="1.000000" stroke="none" 
	d="
M54.034637,51.901375 
	C53.975826,51.976814 53.837234,52.096203 53.747990,52.091290 
	C53.694717,51.871536 53.730690,51.656693 53.860085,51.128769 
	C53.953506,50.815685 53.926163,51.266903 53.992203,51.361286 
	C54.058239,51.455669 54.093445,51.825935 54.034637,51.901375 
z"/>
</svg>