<svg version="1.1" id="Layer_1" xmlns="http://www.w3.org/2000/svg" xmlns:xlink="http://www.w3.org/1999/xlink" x="0px" y="0px"
	 width="100%" viewBox="0 0 209 241" enable-background="new 0 0 209 241" xml:space="preserve">
<path fill="#FEFFFE" opacity="1.000000" stroke="none" 
	d="
M1.348989,184.269089 
	C1.000000,124.545296 1.031446,65.090538 0.920358,5.636046 
	C0.913828,2.140746 1.301752,0.874647 5.357532,0.884516 
	C72.139587,1.047018 138.922211,1.030832 205.704453,0.912271 
	C209.176514,0.906107 210.119431,1.459403 210.109604,5.198421 
	C209.953751,64.486191 210.000000,123.774498 210.000000,183.531342 
	C209.663788,184.314621 209.296616,184.586777 208.570786,184.910492 
	C207.401703,185.187622 206.523132,185.143036 205.411713,185.513855 
	C204.809036,185.926514 204.552933,186.260864 204.241776,186.978851 
	C202.686279,195.322525 201.505554,203.365753 200.392899,211.419403 
	C200.302170,212.076096 200.302109,212.747925 200.161850,213.396210 
	C199.777420,215.173065 199.561081,217.768707 197.682785,217.847839 
	C195.429794,217.942749 195.708466,215.199341 195.372101,213.541794 
	C193.655594,205.083237 192.751450,196.484634 190.973999,187.670258 
	C190.768204,186.898605 190.618744,186.487274 190.214417,185.890732 
	C189.514038,185.395172 188.992462,185.261108 188.178009,185.558197 
	C187.645676,186.001099 187.432922,186.347397 187.176468,187.070465 
	C185.208466,196.557175 183.829636,205.780579 182.521912,215.015518 
	C182.335602,216.331284 182.359253,217.697220 181.738419,218.911545 
	C180.975937,220.402893 180.026321,220.413940 179.253143,218.970062 
	C178.378937,217.337555 178.142746,215.487350 177.829315,213.684906 
	C176.345505,205.152252 175.409164,196.535034 173.804474,187.657150 
	C173.622971,186.879761 173.483109,186.466095 173.079712,185.869263 
	C172.195770,185.267914 171.476059,185.150742 170.467239,185.441101 
	C169.936234,185.816711 169.754562,186.138901 169.637421,186.832779 
	C172.152603,202.861725 174.973343,218.510132 177.856583,234.498871 
	C178.094757,235.239807 178.271072,235.630081 178.726410,236.181122 
	C179.469849,236.629639 180.009979,236.749649 180.845093,236.489471 
	C181.416199,236.094742 181.661560,235.774231 181.969910,235.086304 
	C184.189285,225.183578 185.255356,215.424759 187.463104,205.481934 
	C188.498947,204.535934 189.230469,204.851578 190.225067,205.640945 
	C192.959274,215.216537 193.435135,224.841461 195.654022,234.503052 
	C195.891632,235.233261 196.061447,235.618759 196.490158,236.167557 
	C197.193802,236.616867 197.707932,236.731705 198.512299,236.434814 
	C198.901611,236.129623 199.039612,235.972504 199.327393,235.516434 
	C202.540344,221.389359 204.390335,207.337646 207.182922,193.460342 
	C207.567276,191.550400 207.435852,189.405243 209.591995,187.986908 
	C210.000000,204.976364 209.956512,221.952957 210.050949,238.928787 
	C210.063843,241.244400 209.761566,242.079971 207.079163,242.076141 
	C139.340302,241.979370 71.601234,241.975723 3.862414,242.085190 
	C1.032937,242.089767 0.952775,241.046509 0.962289,238.870453 
	C1.032144,222.892990 1.000000,206.915085 1.000000,190.468658 
	C7.344016,187.132202 10.327644,188.742813 10.458299,195.416351 
	C10.669692,206.213974 10.506203,217.016205 10.529824,227.816467 
	C10.533094,229.311707 10.446791,230.813354 10.597697,232.300278 
	C10.762466,233.923798 10.693186,235.940659 13.081635,235.856903 
	C15.433937,235.774414 15.366687,233.728043 15.396931,232.132507 
	C15.560681,223.493805 15.444854,214.852951 15.470124,206.212906 
	C15.476441,204.052841 15.652095,201.874496 15.436565,199.736191 
	C14.844508,193.862244 15.812044,188.956070 22.335285,186.794464 
	C22.082129,186.315369 21.915548,186.156769 21.411253,185.864563 
	C15.167890,185.039551 9.216881,185.909348 2.888299,185.093353 
	C2.209511,184.827286 1.953745,184.682724 1.348989,184.269089 
z"/>
<path fill="#92C645" opacity="1.000000" stroke="none" 
	d="
M188.344925,204.885147 
	C187.101181,215.617493 185.072479,225.931091 183.037201,236.643494 
	C182.773209,237.180710 182.632950,237.337936 182.256927,237.705627 
	C180.941040,237.968994 179.860931,238.021866 178.380569,238.000412 
	C177.822388,237.782211 177.664459,237.638351 177.291458,237.256897 
	C174.054977,219.952133 171.033539,202.884979 168.036377,185.400879 
	C168.214935,184.819229 168.369232,184.654526 168.761047,184.248566 
	C170.398880,183.963867 171.799210,183.920441 173.610107,183.972641 
	C174.169510,184.205811 174.318359,184.343323 174.654343,184.720413 
	C176.587708,196.378235 178.333954,207.796478 180.225052,220.161896 
	C182.241852,208.021576 184.091843,196.885361 186.047729,185.353607 
	C186.279938,184.799088 186.406219,184.640121 186.756378,184.274658 
	C188.054230,183.999512 189.128220,183.930862 190.601593,183.933716 
	C191.157227,184.164719 191.313461,184.324203 191.694504,184.731857 
	C193.716782,195.761322 195.514221,206.542603 197.311661,217.323868 
	C197.554993,217.367523 197.798325,217.411163 198.041641,217.454803 
	C199.658127,206.892334 201.274597,196.329880 202.996765,185.369354 
	C203.244400,184.809128 203.386353,184.646957 203.759460,184.258820 
	C205.067322,183.978241 206.144043,183.923676 207.617889,183.953857 
	C208.439636,184.486008 209.023788,184.507309 209.786499,184.810944 
	C210.000000,185.750000 210.000000,186.500000 210.000000,187.625000 
	C206.892502,197.757935 206.229095,207.997467 204.120163,217.955032 
	C202.751892,224.415543 201.776581,230.959305 200.284119,237.634521 
	C199.776993,237.729065 199.610947,237.654846 199.232407,237.751770 
	C198.259628,237.973984 197.499329,238.025070 196.361908,238.011017 
	C195.757217,237.727432 195.533859,237.504700 195.129852,237.130112 
	C192.595795,227.083145 191.316711,217.004349 189.881622,206.519775 
	C189.579132,205.534683 189.359360,204.953964 189.195374,204.355957 
	C189.074036,203.913498 188.975647,203.459030 189.115738,202.996323 
	C188.721893,203.467056 188.907715,204.144440 188.344925,204.885147 
z"/>
<path fill="#98C94F" opacity="1.000000" stroke="none" 
	d="
M23.721510,184.236755 
	C25.871950,189.354034 25.565420,190.184555 20.803293,190.047516 
	C17.408245,189.949814 16.637648,191.185257 16.675390,194.352127 
	C16.829842,207.311661 16.717020,220.274185 16.759054,233.235413 
	C16.768051,236.009857 17.126488,238.365646 12.841031,238.277451 
	C8.829115,238.194855 9.230340,235.976990 9.235435,233.432098 
	C9.259390,221.467804 9.245934,209.503433 9.245993,197.539093 
	C9.246028,190.170135 9.246157,190.170135 1.449385,190.054535 
	C1.000000,188.611115 1.000000,187.222214 1.000000,185.416656 
	C1.156555,184.827057 1.313110,184.654114 1.731596,184.249176 
	C8.688723,183.958862 15.383919,183.900574 22.541641,183.926605 
	C23.158817,184.142548 23.313465,184.274185 23.721510,184.236755 
z"/>
<path fill="#89C22F" opacity="1.000000" stroke="none" 
	d="
M210.000000,184.750000 
	C209.449005,184.839844 208.898026,184.679688 208.181030,184.279053 
	C208.456253,183.994736 208.897476,183.950867 209.669357,183.953491 
	C210.000000,184.000000 210.000000,184.500000 210.000000,184.750000 
z"/>
<path fill="#89C22F" opacity="1.000000" stroke="none" 
	d="
M1.745866,183.971130 
	C1.907541,184.346451 1.724982,184.608429 1.222925,184.901550 
	C1.000000,185.000000 1.000000,184.500000 1.000000,184.250000 
	C1.166068,183.975037 1.332137,183.950073 1.745866,183.971130 
z"/>
<path fill="#90C44B" opacity="1.000000" stroke="none" 
	d="
M114.171600,163.978333 
	C108.282097,165.177246 102.481705,164.543213 96.324448,164.371109 
	C95.816643,163.906738 95.641571,163.639847 95.274117,163.214340 
	C95.057808,158.051422 94.767738,153.059891 95.015182,148.095154 
	C95.185722,144.673615 93.878128,143.996124 90.749557,144.017044 
	C72.807487,144.136932 54.864090,144.059189 36.456791,143.976486 
	C35.666233,143.577774 35.458786,143.190063 35.318821,142.400055 
	C46.568371,119.190918 57.888882,96.312988 69.541862,72.763168 
	C81.487671,96.931297 93.082863,120.390083 105.115295,144.733459 
	C117.125847,120.401176 128.700989,96.951004 140.634613,72.774551 
	C152.023575,95.807358 163.118027,118.244537 174.172302,141.025345 
	C174.275726,141.944046 174.371964,142.526947 174.214569,143.510422 
	C156.102112,143.962204 138.194748,144.152695 120.290878,143.980804 
	C116.198738,143.941513 114.693253,144.931458 115.059509,149.159851 
	C115.430092,153.438126 115.118752,157.775482 115.027901,162.550812 
	C114.699844,163.236206 114.481003,163.485001 114.171600,163.978333 
z"/>
<path fill="#90C44B" opacity="1.000000" stroke="none" 
	d="
M87.852905,84.077904 
	C84.202652,76.758446 80.735710,69.763336 77.178200,62.814606 
	C76.218674,60.940399 75.869682,59.359921 76.931740,57.260258 
	C86.006119,39.320526 94.944138,21.311832 103.936447,3.330519 
	C104.145164,2.913158 104.511658,2.574702 104.841225,2.152471 
	C106.479393,2.535245 106.586555,4.044759 107.125893,5.119952 
	C115.693497,22.199883 124.213669,39.303600 132.769608,56.389389 
	C133.759064,58.365280 134.439758,60.076393 133.248810,62.432003 
	C123.956322,80.811943 114.824181,99.272949 105.121086,118.755875 
	C99.160034,106.799507 93.581108,95.609596 87.852905,84.077904 
z"/>
<path fill="#90C541" opacity="1.000000" stroke="none" 
	d="
M35.254059,237.707687 
	C33.619125,237.968185 32.219185,238.019730 30.402798,238.007050 
	C29.823124,237.789810 29.659903,237.636780 29.261166,237.244659 
	C28.978718,219.978516 28.931786,202.951447 28.953470,185.459595 
	C29.184950,184.831436 29.347816,184.668045 29.754068,184.258682 
	C31.390293,183.965714 32.783134,183.918716 34.589245,183.941742 
	C35.159840,184.170502 35.317165,184.329285 35.700157,184.736008 
	C35.976688,190.469788 36.188293,195.960739 36.013317,201.439362 
	C35.920227,204.354034 36.960110,205.041061 39.721062,205.053253 
	C46.837719,205.084641 46.833385,205.222153 46.838093,197.901199 
	C46.840656,193.909546 46.858379,189.917908 46.939831,185.462036 
	C47.177269,184.835510 47.344139,184.673218 47.754501,184.260651 
	C49.390701,183.964172 50.783417,183.917953 52.589340,183.941742 
	C53.161823,184.172318 53.321091,184.332870 53.712685,184.740601 
	C53.985832,202.022003 54.026649,219.056198 53.993195,236.555298 
	C53.777191,237.178192 53.635460,237.336182 53.256317,237.706329 
	C51.618980,237.969391 50.219051,238.020325 48.402691,238.007050 
	C47.821663,237.788345 47.657074,237.633850 47.252113,237.240845 
	C46.953762,229.565872 46.688099,222.123199 46.909744,214.695084 
	C47.061207,209.619278 43.560234,211.363464 41.160404,211.213272 
	C38.679310,211.057953 35.799660,210.250305 35.993378,214.768570 
	C36.297611,221.864441 36.056049,228.983704 35.973457,236.558411 
	C35.763882,237.182083 35.626469,237.340408 35.254059,237.707687 
z"/>
<path fill="#92C644" opacity="1.000000" stroke="none" 
	d="
M119.758408,184.263763 
	C121.064186,183.985306 122.140419,183.927444 123.613892,183.953400 
	C124.169937,184.163818 124.328720,184.290436 124.734909,184.239288 
	C126.664711,187.845108 124.479301,191.296295 123.847778,194.805374 
	C121.466248,208.038559 118.682045,221.198822 116.152748,234.406311 
	C115.750107,236.508881 115.616089,238.146500 112.734283,238.197784 
	C109.797760,238.250061 109.261818,236.892212 108.803421,234.402451 
	C105.948021,218.893707 102.854721,203.428711 100.020309,187.916321 
	C99.802071,186.721954 97.470421,184.059753 101.152527,183.903107 
	C103.552605,183.800995 106.444832,182.706207 107.033180,187.066040 
	C108.585068,198.566238 110.556564,210.009842 112.498940,222.352570 
	C114.730614,209.583710 116.813095,197.668503 119.005463,185.360901 
	C119.253189,184.807114 119.391022,184.645721 119.758408,184.263763 
z"/>
<path fill="#90C53D" opacity="1.000000" stroke="none" 
	d="
M73.040398,207.055115 
	C74.671890,207.058060 75.846146,207.150406 77.000946,207.039780 
	C79.409271,206.809006 80.657776,207.470184 80.707397,210.246765 
	C80.760063,213.192764 79.221214,213.353943 76.955910,213.413452 
	C69.880272,213.599304 69.882011,213.666183 69.880592,220.636017 
	C69.880455,221.301987 69.880585,221.967941 69.880577,222.633911 
	C69.880547,231.400894 69.876823,231.483292 78.774178,231.885468 
	C81.041771,231.987946 82.025841,232.488449 82.010780,234.968613 
	C81.996475,237.323547 81.308746,238.263474 78.889282,238.121399 
	C73.594589,237.810471 66.952820,240.156235 63.375095,237.225327 
	C60.166656,234.596909 62.473026,227.809738 62.407101,222.866638 
	C62.256138,211.547211 62.566525,200.218643 62.253643,188.905853 
	C62.134346,184.592453 63.563042,183.419037 67.610321,183.772583 
	C71.410759,184.104553 75.268723,183.977341 79.090027,183.803223 
	C81.769531,183.681137 81.948654,185.083389 81.994148,187.185242 
	C82.042572,189.422729 81.123940,189.903229 79.057404,190.042221 
	C69.874680,190.659760 69.663780,190.739059 70.033257,200.019058 
	C70.124840,202.319321 67.320145,206.379959 73.040398,207.055115 
z"/>
<path fill="#90C542" opacity="1.000000" stroke="none" 
	d="
M162.224335,212.796097 
	C159.159637,213.147247 156.319183,213.292145 153.193451,213.732925 
	C152.798996,214.180450 152.689804,214.332123 152.724213,214.724533 
	C152.917755,219.680344 152.967712,224.395386 152.942429,229.573822 
	C152.769073,230.191269 152.670959,230.345322 152.718353,230.731537 
	C156.112076,233.053421 159.727066,231.366089 163.571808,232.028717 
	C164.180130,232.234009 164.337204,232.370270 164.698257,232.742554 
	C164.949158,234.059372 164.996094,235.140152 164.973663,236.621872 
	C164.765778,237.181549 164.627258,237.340302 164.253296,237.709839 
	C158.647919,237.970001 153.278000,238.019363 147.444061,237.995438 
	C146.812241,237.768448 146.644424,237.614761 146.227463,237.227737 
	C145.920807,219.976196 145.863297,202.957962 145.879883,185.476685 
	C146.214935,184.821091 146.453598,184.604080 146.834473,184.184692 
	C152.360229,183.961716 157.721527,183.916672 163.545319,183.950989 
	C164.162476,184.181824 164.317154,184.333313 164.684036,184.730682 
	C164.943024,186.059509 164.989822,187.142502 164.960815,188.626099 
	C164.759460,189.177948 164.633881,189.329193 164.272003,189.656876 
	C163.871719,189.857544 163.707108,189.878311 163.543808,189.906570 
	C160.169022,190.490417 154.664474,188.423157 153.777710,190.850342 
	C152.173004,195.242661 152.745285,200.641510 153.277100,205.525528 
	C153.606110,208.546906 156.923019,207.083862 158.696579,206.926010 
	C163.242798,206.521362 164.813568,208.152344 163.316986,212.709244 
	C162.796844,212.798965 162.622711,212.694412 162.224335,212.796097 
z"/>
<path fill="#90C541" opacity="1.000000" stroke="none" 
	d="
M130.766479,184.245026 
	C132.393295,183.964859 133.787964,183.919724 135.595398,183.950500 
	C136.222366,184.254913 136.440887,184.479172 136.841736,184.852417 
	C137.074265,202.024902 137.128815,219.044144 137.110031,236.526794 
	C136.785873,237.176773 136.556183,237.386536 136.179840,237.782013 
	C134.611649,237.985565 133.211258,238.026520 131.395493,237.997910 
	C130.825867,237.787216 130.671600,237.646072 130.314362,237.265869 
	C130.066742,219.987686 130.022110,202.948532 130.037491,185.442566 
	C130.243103,184.810516 130.388702,184.645294 130.766479,184.245026 
z"/>
<path fill="#C3DFA1" opacity="1.000000" stroke="none" 
	d="
M188.396637,205.195221 
	C188.154068,203.717377 188.154068,202.287445 188.154068,200.476257 
	C190.468506,201.803879 189.817596,203.701828 189.922745,205.699509 
	C189.449341,205.809311 189.044281,205.526215 188.396637,205.195221 
z"/>
<path fill="#8AC13D" opacity="1.000000" stroke="none" 
	d="
M35.098476,142.293335 
	C35.490997,142.506516 35.734131,142.944168 35.984856,143.643158 
	C34.850361,144.039902 34.228989,143.783539 35.098476,142.293335 
z"/>
<path fill="#89C13C" opacity="1.000000" stroke="none" 
	d="
M174.321442,143.946381 
	C174.026566,143.340698 174.044922,142.778229 174.097717,141.792358 
	C174.767288,142.152832 176.941925,142.641464 174.321442,143.946381 
z"/>
<path fill="#8AC232" opacity="1.000000" stroke="none" 
	d="
M164.282776,237.926300 
	C164.101089,237.628433 164.265152,237.392426 164.707153,237.117706 
	C164.785431,237.325851 164.666565,237.628891 164.282776,237.926300 
z"/>
<path fill="#89C22F" opacity="1.000000" stroke="none" 
	d="
M199.259705,237.962494 
	C199.261230,237.791885 199.502533,237.660873 199.843445,237.666565 
	C199.943054,237.803268 199.499496,238.002075 199.259705,237.962494 
z"/>
<path fill="#89C22F" opacity="1.000000" stroke="none" 
	d="
M194.967194,237.269226 
	C195.277328,237.064178 195.551865,237.237396 195.876709,237.724060 
	C195.653000,237.815933 195.321198,237.685944 194.967194,237.269226 
z"/>
<path fill="#8AC232" opacity="1.000000" stroke="none" 
	d="
M182.280838,237.916931 
	C182.105682,237.623962 182.271240,237.388885 182.715652,237.117203 
	C182.789154,237.321594 182.664841,237.619675 182.280838,237.916931 
z"/>
<path fill="#8AC232" opacity="1.000000" stroke="none" 
	d="
M164.284851,189.849136 
	C164.127090,189.568604 164.287842,189.356476 164.701477,189.111801 
	C165.022232,189.412598 164.905212,189.692032 164.284851,189.849136 
z"/>
<path fill="#8AC232" opacity="1.000000" stroke="none" 
	d="
M177.081818,237.283325 
	C177.374557,237.102707 177.613495,237.270462 177.886749,237.724319 
	C177.682632,237.799850 177.384933,237.673615 177.081818,237.283325 
z"/>
<path fill="#8AC232" opacity="1.000000" stroke="none" 
	d="
M162.249893,213.047150 
	C162.257111,212.869156 162.514114,212.735977 162.871048,212.753159 
	C162.813873,212.966339 162.656769,213.029144 162.249893,213.047150 
z"/>
<path fill="#86C127" opacity="1.000000" stroke="none" 
	d="
M152.914032,214.732727 
	C152.717133,214.804245 152.550720,214.653854 152.428467,214.473557 
	C152.402679,214.435516 152.538712,214.287766 152.754181,214.109680 
	C152.908188,214.028793 152.960266,214.500153 152.914032,214.732727 
z"/>
<path fill="#86C127" opacity="1.000000" stroke="none" 
	d="
M152.908127,230.732208 
	C152.764999,230.709595 152.666138,230.455521 152.717224,230.119324 
	C152.867188,230.037216 152.952393,230.500748 152.908127,230.732208 
z"/>
<path fill="#86C127" opacity="1.000000" stroke="none" 
	d="
M130.102783,237.291382 
	C130.409271,237.101868 130.642410,237.267899 130.895447,237.726624 
	C130.684814,237.804199 130.389511,237.680054 130.102783,237.291382 
z"/>
<path fill="#8AC232" opacity="1.000000" stroke="none" 
	d="
M164.910431,232.716217 
	C164.614532,232.894516 164.383118,232.730881 164.115509,232.292694 
	C164.321564,232.216446 164.620102,232.335144 164.910431,232.716217 
z"/>
<path fill="#89C230" opacity="1.000000" stroke="none" 
	d="
M29.021530,237.286774 
	C29.340332,237.087265 29.594429,237.258743 29.887146,237.731415 
	C29.663370,237.817886 29.340391,237.692932 29.021530,237.286774 
z"/>
<path fill="#8AC232" opacity="1.000000" stroke="none" 
	d="
M145.984406,237.276276 
	C146.294235,237.079391 146.555542,237.248642 146.871155,237.712173 
	C146.650192,237.800812 146.320343,237.679474 145.984406,237.276276 
z"/>
<path fill="#89C230" opacity="1.000000" stroke="none" 
	d="
M35.282906,237.922943 
	C35.102131,237.626083 35.265472,237.391388 35.705193,237.118164 
	C35.783115,237.325577 35.664932,237.627396 35.282906,237.922943 
z"/>
<path fill="#8AC232" opacity="1.000000" stroke="none" 
	d="
M136.303040,237.950790 
	C136.110046,237.618927 136.302582,237.364929 136.813187,237.086395 
	C136.889145,237.312439 136.741608,237.634720 136.303040,237.950790 
z"/>
<path fill="#89C230" opacity="1.000000" stroke="none" 
	d="
M47.009163,237.285553 
	C47.329086,237.084106 47.586468,237.255753 47.885075,237.730057 
	C47.659698,237.818130 47.333141,237.693451 47.009163,237.285553 
z"/>
<path fill="#89C230" opacity="1.000000" stroke="none" 
	d="
M53.285477,237.924255 
	C53.104500,237.624283 53.271656,237.387772 53.719650,237.114563 
	C53.796631,237.323471 53.674335,237.626755 53.285477,237.924255 
z"/>
<path fill="#89C230" opacity="1.000000" stroke="none" 
	d="
M124.740868,184.001251 
	C124.715172,184.160843 124.448036,184.260162 124.096024,184.198334 
	C124.011147,184.037201 124.499435,183.940964 124.740868,184.001251 
z"/>
<path fill="#86C035" opacity="1.000000" stroke="none" 
	d="
M95.110725,163.316559 
	C95.447159,163.162140 95.680588,163.390121 95.886871,163.956665 
	C95.670822,163.999084 95.386826,163.800323 95.110725,163.316559 
z"/>
<path fill="#89C13C" opacity="1.000000" stroke="none" 
	d="
M114.338127,164.140015 
	C114.201843,163.890854 114.353653,163.586075 114.727577,163.147995 
	C114.841866,163.371262 114.734047,163.727844 114.338127,164.140015 
z"/>
<path fill="#89C22F" opacity="1.000000" stroke="none" 
	d="
M23.735336,184.000183 
	C23.782074,184.386459 23.610823,184.767532 23.083347,184.180054 
	C23.004168,184.010925 23.495766,183.932709 23.735336,184.000183 
z"/>
<path fill="#89C230" opacity="1.000000" stroke="none" 
	d="
M29.709671,184.011383 
	C29.911093,184.336929 29.731768,184.597092 29.240780,184.893982 
	C29.155354,184.666565 29.288622,184.338303 29.709671,184.011383 
z"/>
<path fill="#89C230" opacity="1.000000" stroke="none" 
	d="
M35.934406,184.703033 
	C35.612545,184.893845 35.366611,184.712433 35.095268,184.225739 
	C35.316002,184.148529 35.629494,184.285324 35.934406,184.703033 
z"/>
<path fill="#89C230" opacity="1.000000" stroke="none" 
	d="
M47.708191,184.009399 
	C47.909985,184.337402 47.728024,184.599045 47.231251,184.896576 
	C47.146400,184.667999 47.282398,184.338211 47.708191,184.009399 
z"/>
<path fill="#89C230" opacity="1.000000" stroke="none" 
	d="
M53.951668,184.704193 
	C53.627552,184.898758 53.376930,184.717392 53.097855,184.227707 
	C53.321140,184.148041 53.639729,184.284332 53.951668,184.704193 
z"/>
<path fill="#89C230" opacity="1.000000" stroke="none" 
	d="
M119.726562,184.046051 
	C119.908554,184.338226 119.748894,184.580353 119.312172,184.869049 
	C119.231956,184.661987 119.348557,184.355453 119.726562,184.046051 
z"/>
<path fill="#89C22F" opacity="1.000000" stroke="none" 
	d="
M203.724976,184.036026 
	C203.911499,184.333771 203.749496,184.580200 203.303528,184.871704 
	C203.221436,184.660599 203.340393,184.349915 203.724976,184.036026 
z"/>
<path fill="#86C127" opacity="1.000000" stroke="none" 
	d="
M130.720718,184.004486 
	C130.931503,184.325562 130.771347,184.583298 130.307831,184.879471 
	C130.212585,184.650146 130.327698,184.324554 130.720718,184.004486 
z"/>
<path fill="#86C127" opacity="1.000000" stroke="none" 
	d="
M137.018356,184.713867 
	C136.689087,184.921387 136.420822,184.743240 136.111557,184.248810 
	C136.344467,184.158310 136.680725,184.290207 137.018356,184.713867 
z"/>
<path fill="#8AC232" opacity="1.000000" stroke="none" 
	d="
M146.699615,184.006470 
	C146.804260,184.273941 146.609604,184.541122 146.184479,184.910965 
	C146.102783,184.677811 146.251556,184.341980 146.699615,184.006470 
z"/>
<path fill="#8AC232" opacity="1.000000" stroke="none" 
	d="
M164.904663,184.705627 
	C164.598419,184.880630 164.363205,184.702225 164.099197,184.235825 
	C164.309570,184.165131 164.611328,184.299927 164.904663,184.705627 
z"/>
<path fill="#89C22F" opacity="1.000000" stroke="none" 
	d="
M168.712433,184.006607 
	C168.922348,184.327896 168.752884,184.587616 168.275391,184.885193 
	C168.182526,184.657928 168.304413,184.331909 168.712433,184.006607 
z"/>
<path fill="#89C22F" opacity="1.000000" stroke="none" 
	d="
M174.840973,184.710602 
	C174.567505,184.863358 174.351456,184.693207 174.106995,184.258911 
	C174.412140,183.952682 174.685410,184.083664 174.840973,184.710602 
z"/>
<path fill="#89C22F" opacity="1.000000" stroke="none" 
	d="
M186.730957,184.073517 
	C186.900009,184.346298 186.747742,184.576843 186.338531,184.858948 
	C186.051971,184.586258 186.161316,184.293198 186.730957,184.073517 
z"/>
<path fill="#89C22F" opacity="1.000000" stroke="none" 
	d="
M191.917877,184.703018 
	C191.602295,184.895218 191.355911,184.714218 191.090576,184.221130 
	C191.306122,184.145493 191.611267,184.285751 191.917877,184.703018 
z"/>
</svg>