<svg version="1.1" id="Layer_1" xmlns="http://www.w3.org/2000/svg" xmlns:xlink="http://www.w3.org/1999/xlink" x="0px" y="0px"
	 width="100%" viewBox="0 0 451 112" enable-background="new 0 0 451 112" xml:space="preserve">
<path fill="#FEFDFD" opacity="1.000000" stroke="none" 
	d="
M305.000000,113.000000 
	C203.333344,113.000000 102.166687,113.000000 1.000027,113.000000 
	C1.000018,75.666687 1.000018,38.333366 1.000009,1.000037 
	C151.333298,1.000025 301.666595,1.000025 451.999939,1.000012 
	C451.999939,38.333294 451.999939,75.666588 451.999969,112.999939 
	C403.166656,113.000000 354.333344,113.000000 305.000000,113.000000 
M337.042511,74.026260 
	C337.042511,74.026260 337.222809,74.233765 337.722931,74.041733 
	C337.860779,73.722778 337.998627,73.403816 338.015747,73.037300 
	C338.015747,73.037300 338.112457,73.123810 338.606873,72.859276 
	C338.874481,72.375443 339.142090,71.891609 339.405701,71.328072 
	C339.405701,71.328072 339.485016,71.336914 339.908722,71.108414 
	C340.127808,70.855293 340.244629,70.561508 340.037506,70.016800 
	C340.037506,70.016800 340.238403,70.246910 340.740906,70.043770 
	C340.880585,69.719185 341.020233,69.394600 341.712921,68.703995 
	C344.345459,65.213120 346.977997,61.722240 349.797791,57.983086 
	C351.146667,59.627670 352.072754,60.782421 353.025940,61.914299 
	C356.575012,66.128571 357.459473,66.125252 360.829163,61.897507 
	C362.176331,60.207298 363.401886,58.404095 364.877899,56.835957 
	C367.901154,53.623901 367.857574,50.777874 365.017059,47.250381 
	C357.517700,37.937290 350.338684,28.366251 342.910828,18.740713 
	C343.808838,18.239265 344.498535,17.854137 345.417908,17.340773 
	C343.521454,14.992721 341.864380,12.941030 339.838440,10.161181 
	C331.174408,9.950528 322.510376,9.739301 313.845398,9.578718 
	C313.831177,9.578455 313.803040,10.330471 312.906250,10.199903 
	C311.952606,10.007452 310.998932,9.815000 309.149841,9.324532 
	C304.086365,9.423804 299.022919,9.523077 293.464996,9.419347 
	C293.293549,9.467892 293.122101,9.516438 292.573212,9.316959 
	C292.186981,9.405744 292.062836,9.635991 291.914337,10.448083 
	C291.936218,10.621835 291.958069,10.795587 291.364319,11.582673 
	C290.279480,11.300806 289.194611,11.018939 287.710541,10.288159 
	C277.550903,6.038229 267.165771,7.145761 257.654633,11.239566 
	C240.274658,18.720304 232.570312,39.598976 239.564163,57.447414 
	C246.491882,75.127174 265.709534,84.356400 284.631195,78.756821 
	C285.601013,78.264359 286.570862,77.771896 287.813080,77.282661 
	C287.813080,77.282661 288.006897,77.091270 288.616394,77.088768 
	C289.104370,76.748840 289.592346,76.408913 290.031799,75.995583 
	C290.031799,75.995583 290.048828,76.081825 290.571777,76.086586 
	C290.728638,76.010620 290.885529,75.934647 291.327332,75.925903 
	C291.327332,75.925903 291.579132,75.776619 291.710510,76.564217 
	C292.829224,77.319603 293.939423,78.716606 295.067993,78.731628 
	C307.029327,78.890938 318.994232,78.887001 330.956177,78.754265 
	C332.351013,78.738785 333.734283,77.676788 334.993530,77.030701 
	C334.993530,77.030701 335.109528,77.121231 335.603577,76.851250 
	C335.869263,76.364090 336.134979,75.876923 336.343201,75.267418 
	C336.343201,75.267418 336.462189,75.331558 336.892761,75.103409 
	C337.110138,74.844940 337.228241,74.547104 337.042511,74.026260 
M207.842346,28.169508 
	C207.842346,28.169508 207.708801,28.188894 207.947845,28.695559 
	C208.285721,28.840656 208.623581,28.985754 209.181442,29.639172 
	C209.734573,30.109968 210.287720,30.580767 211.011581,31.669727 
	C211.306656,31.968166 211.601730,32.266605 211.799576,32.819202 
	C211.799576,32.819202 212.004044,32.998756 212.054962,33.840458 
	C212.304138,40.611519 212.667511,47.380798 212.772919,54.154099 
	C212.898407,62.217701 212.802475,70.284744 212.802475,78.335655 
	C219.969498,78.335655 226.491852,78.335655 233.109543,78.335655 
	C233.109543,63.232941 233.136002,48.484985 233.061890,33.737537 
	C233.055618,32.489162 232.376755,31.244169 232.070496,29.249964 
	C224.075180,8.048143 203.156204,2.621926 182.384949,15.823385 
	C177.106522,13.405679 172.392136,10.407965 167.245041,9.048483 
	C152.732162,5.215261 133.519318,15.174715 131.427292,30.766596 
	C129.352005,46.233593 130.698074,62.159740 130.561279,77.884682 
	C130.560410,77.984299 130.809402,78.086090 131.497040,78.518394 
	C131.705353,78.462852 131.913666,78.407310 133.005325,78.638023 
	C138.631912,78.542717 144.258499,78.447411 150.581299,78.345039 
	C150.673935,77.907486 150.766571,77.469925 151.016205,76.147560 
	C150.964462,73.754379 150.912720,71.361191 150.987747,68.042366 
	C151.071655,56.646492 151.155548,45.250622 151.757416,33.459801 
	C154.972824,28.239294 159.010193,26.124208 163.515701,27.299906 
	C168.485733,28.596825 171.243011,32.483986 171.326324,38.579227 
	C171.405807,44.393101 171.344833,50.208900 171.345078,56.023853 
	C171.345367,63.445126 171.345139,70.866394 171.345139,78.481049 
	C178.551636,78.481049 185.115387,78.481049 192.170502,78.481049 
	C192.170502,76.634865 192.170029,75.018684 192.170563,73.402504 
	C192.174347,61.938744 192.123444,50.474613 192.199661,39.011333 
	C192.260529,29.859030 198.181458,25.489910 207.362076,28.202097 
	C207.362076,28.202097 207.791885,28.294670 207.842346,28.169508 
M427.055603,27.701088 
	C427.657837,28.489723 428.260101,29.278358 428.862335,30.067009 
	C429.650360,29.405783 430.438385,28.744558 431.665985,28.251390 
	C432.025146,28.145777 432.384338,28.040163 432.743500,27.934563 
	C432.259705,27.614809 431.775879,27.295055 431.110046,26.330635 
	C431.109833,25.890984 431.109650,25.451332 431.785461,24.985859 
	C432.312958,24.463476 432.840424,23.941095 433.367920,23.418726 
	C432.009796,22.391994 430.651703,21.365263 429.293579,20.338526 
	C428.863861,21.204725 428.434143,22.070925 427.317657,23.244225 
	C427.258636,24.471189 427.199615,25.698153 427.055603,27.701088 
M51.944599,28.023220 
	C58.275379,28.023220 64.606163,28.023220 70.853653,28.023220 
	C70.853653,21.543571 70.853653,15.794299 70.612564,9.208892 
	C50.745052,9.164032 30.877535,9.110431 11.010034,9.114971 
	C10.390665,9.115112 9.771433,9.716690 8.996360,10.958033 
	C8.996360,16.510710 8.996360,22.063389 8.996360,27.432476 
	C9.665859,27.735870 9.947207,27.974295 10.228924,27.974731 
	C16.481449,27.984421 22.734013,27.967831 29.313858,28.288809 
	C29.537615,28.505548 29.746796,28.735542 29.785967,29.908140 
	C29.785967,45.329575 29.785967,60.751011 29.785967,76.086075 
	C36.935921,76.086075 43.370152,76.086075 50.058723,76.086075 
	C50.058723,60.212124 50.058723,44.593880 50.361366,28.622538 
	C50.576797,28.399551 50.793301,28.177612 51.944599,28.023220 
M80.158707,11.951983 
	C80.150246,32.432991 80.094658,52.914162 80.166351,73.394890 
	C80.184341,78.530731 78.907089,82.653503 73.435959,84.200264 
	C70.820297,84.939743 68.139046,85.447227 64.975815,86.178001 
	C64.975815,90.435989 64.967560,95.411377 64.977997,100.386726 
	C64.989876,106.055664 65.780945,106.714157 71.392288,105.700920 
	C87.672607,102.761208 98.725273,94.440659 101.066078,76.072617 
	C101.066078,53.903095 101.066078,31.733576 101.066078,9.288076 
	C94.419449,9.288076 88.458862,9.227368 82.502869,9.365034 
	C81.759697,9.382212 81.040794,10.449411 80.158707,11.951983 
M395.286499,22.319262 
	C392.398865,26.042250 389.511200,29.765236 386.574738,33.551125 
	C382.784302,29.127453 379.371582,25.144598 375.047852,20.951145 
	C366.459686,20.951145 357.871521,20.951145 349.283386,20.951145 
	C349.179016,21.275221 349.074646,21.599295 348.970276,21.923370 
	C349.603729,22.396357 350.237183,22.869343 351.009735,23.992752 
	C358.112396,33.343018 365.215057,42.693283 372.207733,51.898769 
	C363.893555,63.074879 355.881561,73.844780 347.225861,85.041573 
	C347.578613,85.701149 347.919037,86.927437 348.285950,86.935425 
	C353.906006,87.057579 359.532135,87.122505 365.151001,86.976593 
	C367.812500,86.907494 370.461639,86.364578 373.714691,85.737602 
	C377.873413,80.075195 382.032166,74.412788 386.331085,68.559540 
	C396.387939,81.386833 406.066620,93.731827 416.227600,106.846283 
	C424.720062,106.846283 433.212555,106.846283 442.382751,106.846283 
	C441.411011,105.735970 440.805420,105.044006 440.037262,103.731400 
	C426.532410,86.156738 413.027557,68.582069 399.635559,51.154285 
	C406.718872,41.649731 413.442932,32.627243 420.803528,23.112278 
	C422.619843,21.034595 421.351135,20.895720 419.494110,20.908716 
	C413.252075,20.952402 407.008087,20.850666 400.768250,20.975130 
	C399.132141,21.007765 397.508331,21.657768 395.286499,22.319262 
M104.634857,49.338848 
	C103.519676,55.449146 105.833313,60.332729 110.875801,62.512115 
	C115.495354,64.508705 121.712860,62.990715 124.410690,59.207600 
	C127.761940,54.508202 127.354790,49.029034 124.044083,44.666389 
	C119.821091,39.101597 106.582108,40.252975 104.634857,49.338848 
M55.875652,58.407608 
	C60.406876,63.435440 66.608543,64.957535 70.826546,62.077061 
	C76.146370,58.444145 78.021301,52.850010 75.684776,47.581772 
	C73.347626,42.312122 67.876846,40.094772 61.304405,41.753300 
	C55.291122,43.270725 52.666832,50.460762 55.875652,58.407608 
M356.267975,15.110682 
	C355.794037,15.879767 355.320099,16.648853 354.486176,18.002136 
	C361.307556,18.002136 367.467194,17.406166 373.459290,18.153645 
	C380.877136,19.078978 384.630432,15.381872 387.611511,9.057705 
	C380.817688,9.057705 374.231293,9.386484 367.695740,8.951292 
	C362.674622,8.616943 359.034821,9.929128 356.267975,15.110682 
z"/>
<path fill="#C2131D" opacity="1.000000" stroke="none" 
	d="
M288.006897,77.091270 
	C288.006897,77.091270 287.813080,77.282661 287.302429,77.231918 
	C285.849640,77.711105 284.907501,78.241043 283.965332,78.770973 
	C265.709534,84.356400 246.491882,75.127174 239.564163,57.447414 
	C232.570312,39.598976 240.274658,18.720304 257.654633,11.239566 
	C267.165771,7.145761 277.550903,6.038229 288.056702,10.809247 
	C289.703979,11.481310 291.005157,11.632284 292.528381,11.703626 
	C293.153442,10.956780 293.556458,10.289568 293.959442,9.622353 
	C299.022919,9.523077 304.086365,9.423804 309.690491,9.839890 
	C310.487030,12.298784 310.957764,14.241532 310.964905,16.185982 
	C311.024506,32.409798 310.965912,48.634094 311.047882,64.857712 
	C311.056396,66.541161 311.747314,68.221153 312.123474,69.845634 
	C312.125366,69.788521 312.239197,69.777908 312.179321,69.983170 
	C312.407379,70.238602 312.695312,70.288765 313.269684,70.137245 
	C321.105865,60.096985 328.655609,50.258419 336.300293,40.296120 
	C329.410522,31.151726 322.649323,22.177942 315.973389,12.784307 
	C317.499359,11.881749 318.930878,11.016756 320.382324,10.981912 
	C326.987579,10.823338 333.598419,10.898339 340.207275,10.889339 
	C341.864380,12.941030 343.521454,14.992721 345.417908,17.340773 
	C344.498535,17.854137 343.808838,18.239265 342.910828,18.740713 
	C350.338684,28.366251 357.517700,37.937290 365.017059,47.250381 
	C367.857574,50.777874 367.901154,53.623901 364.877899,56.835957 
	C363.401886,58.404095 362.176331,60.207298 360.829163,61.897507 
	C357.459473,66.125252 356.575012,66.128571 353.025940,61.914299 
	C352.072754,60.782421 351.146667,59.627670 349.797791,57.983086 
	C346.977997,61.722240 344.345459,65.213120 341.197388,69.006508 
	C340.534027,69.621651 340.386230,69.934288 340.238403,70.246918 
	C340.238403,70.246910 340.037506,70.016800 339.894714,70.198502 
	C339.662933,70.699112 339.573975,71.018013 339.484985,71.336914 
	C339.485016,71.336914 339.405701,71.328072 339.094849,71.400696 
	C338.560120,72.023476 338.336304,72.573647 338.112457,73.123810 
	C338.112457,73.123810 338.015747,73.037300 337.841705,73.178558 
	C337.519379,73.624458 337.371094,73.929108 337.222809,74.233765 
	C337.222809,74.233765 337.042511,74.026260 336.892578,74.199890 
	C336.649139,74.692856 336.555664,75.012207 336.462189,75.331558 
	C336.462189,75.331558 336.343201,75.267418 336.059875,75.367554 
	C335.554169,76.018875 335.331848,76.570053 335.109528,77.121231 
	C335.109528,77.121231 334.993530,77.030701 334.581116,77.069626 
	C322.039948,77.097572 309.910553,77.146881 297.783081,77.017517 
	C295.710938,76.995415 293.646912,76.209618 291.579132,75.776627 
	C291.579132,75.776619 291.327332,75.925903 291.065002,75.762436 
	C290.551392,75.759918 290.300110,75.920876 290.048828,76.081833 
	C290.048828,76.081825 290.031799,75.995583 289.745850,76.020958 
	C288.975555,76.394646 288.491211,76.742958 288.006897,77.091270 
M282.422028,58.081860 
	C289.861145,52.537365 292.265472,44.644562 288.815887,37.092308 
	C285.599609,30.050800 277.563629,25.888342 270.342560,27.542105 
	C263.576538,29.091654 258.932800,33.221714 257.315979,39.880642 
	C255.716309,46.469006 257.571075,52.358631 262.923431,56.929993 
	C268.873016,62.011410 275.167633,62.208504 282.422028,58.081860 
z"/>
<path fill="#C2141E" opacity="1.000000" stroke="none" 
	d="
M149.885071,78.352097 
	C144.258499,78.447411 138.631912,78.542717 132.464294,78.282845 
	C131.596069,78.014061 131.268890,78.100464 130.941711,78.186867 
	C130.809402,78.086090 130.560410,77.984299 130.561279,77.884682 
	C130.698074,62.159740 129.352005,46.233593 131.427292,30.766596 
	C133.519318,15.174715 152.732162,5.215261 167.245041,9.048483 
	C172.392136,10.407965 177.106522,13.405679 182.384949,15.823385 
	C203.156204,2.621926 224.075180,8.048143 231.774734,29.872042 
	C231.650192,41.564247 231.901978,52.633862 231.972061,63.704628 
	C232.058167,77.309921 231.993622,77.190590 218.435989,77.077362 
	C214.918381,77.047981 213.888672,75.926506 213.942032,72.495094 
	C214.117416,61.215946 214.099548,49.930870 213.917496,38.651924 
	C213.886917,36.757732 212.671814,34.882664 212.004044,32.998756 
	C212.004044,32.998756 211.799576,32.819202 211.778793,32.371311 
	C211.452286,31.632801 211.146576,31.342182 210.840851,31.051563 
	C210.287720,30.580767 209.734573,30.109968 208.947098,29.132751 
	C208.378098,28.480518 208.043457,28.334707 207.708801,28.188896 
	C207.708801,28.188894 207.842346,28.169508 207.817810,28.035748 
	C207.531509,27.915127 207.269775,27.928270 207.008026,27.941410 
	C198.181458,25.489910 192.260529,29.859030 192.199661,39.011333 
	C192.123444,50.474613 192.174347,61.938744 192.170563,73.402504 
	C192.170029,75.018684 192.170502,76.634865 192.170502,78.481049 
	C185.115387,78.481049 178.551636,78.481049 171.345139,78.481049 
	C171.345139,70.866394 171.345367,63.445126 171.345078,56.023853 
	C171.344833,50.208900 171.405807,44.393101 171.326324,38.579227 
	C171.243011,32.483986 168.485733,28.596825 163.515701,27.299906 
	C159.010193,26.124208 154.972824,28.239294 151.158722,33.938187 
	C150.371429,43.190365 150.101715,51.963608 150.042130,60.738277 
	C150.023499,63.479542 150.572037,66.224655 150.860962,68.968010 
	C150.912720,71.361191 150.964462,73.754379 150.706879,76.750389 
	C150.226730,77.686180 150.055908,78.019142 149.885071,78.352097 
z"/>
<path fill="#C2131C" opacity="1.000000" stroke="none" 
	d="
M415.745361,106.076813 
	C406.066620,93.731827 396.387939,81.386833 386.331085,68.559540 
	C382.032166,74.412788 377.873413,80.075195 372.939545,85.873779 
	C365.710449,86.006424 359.254211,86.094658 352.804077,85.936172 
	C351.149414,85.895523 349.513885,85.076256 347.869568,84.614685 
	C355.881561,73.844780 363.893555,63.074879 372.207733,51.898769 
	C365.215057,42.693283 358.112396,33.343018 351.197021,23.312550 
	C354.831055,22.421736 358.277557,22.207277 361.724640,22.001440 
	C366.469177,21.718128 371.214081,21.441334 375.958832,21.161747 
	C379.371582,25.144598 382.784302,29.127453 386.574738,33.551125 
	C389.511200,29.765236 392.398865,26.042250 396.060059,22.167805 
	C403.039093,22.011276 409.247559,21.899714 415.447937,22.074644 
	C417.034088,22.119392 418.594666,23.070213 420.166992,23.604755 
	C413.442932,32.627243 406.718872,41.649731 399.635559,51.154285 
	C413.027557,68.582069 426.532410,86.156738 439.893799,104.441391 
	C438.176910,105.434021 436.607391,105.932785 435.029297,105.961456 
	C428.602753,106.078217 422.173584,106.050972 415.745361,106.076813 
z"/>
<path fill="#C2121C" opacity="1.000000" stroke="none" 
	d="
M100.898254,76.996307 
	C98.725273,94.440659 87.672607,102.761208 71.392288,105.700920 
	C65.780945,106.714157 64.989876,106.055664 64.977997,100.386726 
	C64.967560,95.411377 64.975815,90.435989 64.975815,86.178001 
	C68.139046,85.447227 70.820297,84.939743 73.435959,84.200264 
	C78.907089,82.653503 80.184341,78.530731 80.166351,73.394890 
	C80.094658,52.914162 80.150246,32.432991 80.682663,11.474876 
	C85.851273,10.986504 90.515518,11.234947 95.134705,10.886275 
	C99.231842,10.577010 100.149750,12.205207 100.115639,16.015081 
	C99.949287,34.592831 100.017609,53.172962 100.077904,71.752007 
	C100.083580,73.500977 100.612350,75.248245 100.898254,76.996307 
z"/>
<path fill="#C2131D" opacity="1.000000" stroke="none" 
	d="
M9.152138,10.037879 
	C9.771433,9.716690 10.390665,9.115112 11.010034,9.114971 
	C30.877535,9.110431 50.745052,9.164032 70.463310,9.936988 
	C70.208885,14.616506 69.883102,18.578129 70.065216,22.516266 
	C70.223724,25.944000 69.097153,27.127607 65.585876,27.091206 
	C60.731056,27.040876 55.869530,27.637281 51.010876,27.956718 
	C50.793301,28.177612 50.576797,28.399551 49.898773,29.083714 
	C49.290482,40.350891 49.076134,51.156513 49.016582,61.962990 
	C48.943298,75.261139 48.999168,75.103561 35.580364,75.096634 
	C31.645769,75.094597 30.876816,73.662292 30.931049,70.118790 
	C31.114614,58.124332 31.042967,46.125011 30.953737,34.128410 
	C30.940950,32.409454 30.294561,30.695213 29.941402,28.978790 
	C29.746796,28.735542 29.537615,28.505548 28.853512,27.830975 
	C25.273594,27.248466 22.154510,27.033058 19.034357,27.016289 
	C10.001097,26.967737 10.066697,26.998293 9.961912,18.222569 
	C9.929301,15.491505 9.435052,12.765954 9.152138,10.037879 
z"/>
<path fill="#C2141D" opacity="1.000000" stroke="none" 
	d="
M104.749695,48.960350 
	C106.582108,40.252975 119.821091,39.101597 124.044083,44.666389 
	C127.354790,49.029034 127.761940,54.508202 124.410690,59.207600 
	C121.712860,62.990715 115.495354,64.508705 110.875801,62.512115 
	C105.833313,60.332729 103.519676,55.449146 104.749695,48.960350 
z"/>
<path fill="#C2141D" opacity="1.000000" stroke="none" 
	d="
M55.670799,58.078568 
	C52.666832,50.460762 55.291122,43.270725 61.304405,41.753300 
	C67.876846,40.094772 73.347626,42.312122 75.684776,47.581772 
	C78.021301,52.850010 76.146370,58.444145 70.826546,62.077061 
	C66.608543,64.957535 60.406876,63.435440 55.670799,58.078568 
z"/>
<path fill="#C2141D" opacity="1.000000" stroke="none" 
	d="
M356.543549,14.828360 
	C359.034821,9.929128 362.674622,8.616943 367.695740,8.951292 
	C374.231293,9.386484 380.817688,9.057705 387.611511,9.057705 
	C384.630432,15.381872 380.877136,19.078978 373.459290,18.153645 
	C367.467194,17.406166 361.307556,18.002136 354.486176,18.002136 
	C355.320099,16.648853 355.794037,15.879767 356.543549,14.828360 
z"/>
<path fill="#C21113" opacity="1.000000" stroke="none" 
	d="
M212.029510,33.419609 
	C212.671814,34.882664 213.886917,36.757732 213.917496,38.651924 
	C214.099548,49.930870 214.117416,61.215946 213.942032,72.495094 
	C213.888672,75.926506 214.918381,77.047981 218.435989,77.077362 
	C231.993622,77.190590 232.058167,77.309921 231.972061,63.704628 
	C231.901978,52.633862 231.650192,41.564247 231.744659,30.245863 
	C232.376755,31.244169 233.055618,32.489162 233.061890,33.737537 
	C233.136002,48.484985 233.109543,63.232941 233.109543,78.335655 
	C226.491852,78.335655 219.969498,78.335655 212.802475,78.335655 
	C212.802475,70.284744 212.898407,62.217701 212.772919,54.154099 
	C212.667511,47.380798 212.304138,40.611519 212.029510,33.419609 
z"/>
<path fill="#BE0000" opacity="1.000000" stroke="none" 
	d="
M29.863686,29.443466 
	C30.294561,30.695213 30.940950,32.409454 30.953737,34.128410 
	C31.042967,46.125011 31.114614,58.124332 30.931049,70.118790 
	C30.876816,73.662292 31.645769,75.094597 35.580364,75.096634 
	C48.999168,75.103561 48.943298,75.261139 49.016582,61.962990 
	C49.076134,51.156513 49.290482,40.350891 49.747452,29.260263 
	C50.058723,44.593880 50.058723,60.212124 50.058723,76.086075 
	C43.370152,76.086075 36.935921,76.086075 29.785967,76.086075 
	C29.785967,60.751011 29.785967,45.329575 29.863686,29.443466 
z"/>
<path fill="#C6282B" opacity="1.000000" stroke="none" 
	d="
M100.982162,76.534462 
	C100.612350,75.248245 100.083580,73.500977 100.077904,71.752007 
	C100.017609,53.172962 99.949287,34.592831 100.115639,16.015081 
	C100.149750,12.205207 99.231842,10.577010 95.134705,10.886275 
	C90.515518,11.234947 85.851273,10.986504 80.758636,11.013924 
	C81.040794,10.449411 81.759697,9.382212 82.502869,9.365034 
	C88.458862,9.227368 94.419449,9.288076 101.066078,9.288076 
	C101.066078,31.733576 101.066078,53.903095 100.982162,76.534462 
z"/>
<path fill="#C9313A" opacity="1.000000" stroke="none" 
	d="
M291.644836,76.170425 
	C293.646912,76.209618 295.710938,76.995415 297.783081,77.017517 
	C309.910553,77.146881 322.039948,77.097572 334.645782,77.104256 
	C333.734283,77.676788 332.351013,78.738785 330.956177,78.754265 
	C318.994232,78.887001 307.029327,78.890938 295.067993,78.731628 
	C293.939423,78.716606 292.829224,77.319603 291.644836,76.170425 
z"/>
<path fill="#BE0000" opacity="1.000000" stroke="none" 
	d="
M312.121582,69.902748 
	C311.747314,68.221153 311.056396,66.541161 311.047882,64.857712 
	C310.965912,48.634094 311.024506,32.409798 310.964905,16.185982 
	C310.957764,14.241532 310.487030,12.298784 310.138245,9.988897 
	C310.998932,9.815000 311.952606,10.007452 313.329926,10.426476 
	C313.753601,10.653049 314.024261,10.693319 313.536804,10.630278 
	C312.816010,12.324913 312.390930,14.081267 312.378815,15.840466 
	C312.254669,33.860962 312.197479,51.881920 312.121582,69.902748 
z"/>
<path fill="#C9333B" opacity="1.000000" stroke="none" 
	d="
M314.024261,10.693319 
	C314.024261,10.693319 313.753601,10.653049 313.767487,10.692072 
	C313.803040,10.330471 313.831177,9.578455 313.845398,9.578718 
	C322.510376,9.739301 331.174408,9.950528 340.022858,10.525261 
	C333.598419,10.898339 326.987579,10.823338 320.382324,10.981912 
	C318.930878,11.016756 317.499359,11.881749 315.690186,12.626377 
	C314.889221,12.156638 314.456757,11.424978 314.024261,10.693319 
z"/>
<path fill="#BE0000" opacity="1.000000" stroke="none" 
	d="
M51.477737,27.989969 
	C55.869530,27.637281 60.731056,27.040876 65.585876,27.091206 
	C69.097153,27.127607 70.223724,25.944000 70.065216,22.516266 
	C69.883102,18.578129 70.208885,14.616506 70.583855,10.355055 
	C70.853653,15.794299 70.853653,21.543571 70.853653,28.023220 
	C64.606163,28.023220 58.275379,28.023220 51.477737,27.989969 
z"/>
<path fill="#BE0000" opacity="1.000000" stroke="none" 
	d="
M9.074249,10.497955 
	C9.435052,12.765954 9.929301,15.491505 9.961912,18.222569 
	C10.066697,26.998293 10.001097,26.967737 19.034357,27.016289 
	C22.154510,27.033058 25.273594,27.248466 28.689869,27.664688 
	C22.734013,27.967831 16.481449,27.984421 10.228924,27.974731 
	C9.947207,27.974295 9.665859,27.735870 8.996360,27.432476 
	C8.996360,22.063389 8.996360,16.510710 9.074249,10.497955 
z"/>
<path fill="#BF0005" opacity="1.000000" stroke="none" 
	d="
M150.924347,68.505188 
	C150.572037,66.224655 150.023499,63.479542 150.042130,60.738277 
	C150.101715,51.963608 150.371429,43.190365 150.899750,34.135658 
	C151.155548,45.250622 151.071655,56.646492 150.924347,68.505188 
z"/>
<path fill="#EECBCC" opacity="1.000000" stroke="none" 
	d="
M428.004395,22.937126 
	C428.434143,22.070925 428.863861,21.204725 429.293579,20.338528 
	C430.651703,21.365263 432.009796,22.391994 433.367920,23.418720 
	C432.840424,23.941095 432.312958,24.463476 431.214478,24.964394 
	C430.643494,24.942926 430.175079,24.903448 429.852356,24.949106 
	C429.684113,25.411644 429.838531,25.828524 429.993896,26.578979 
	C429.643250,27.467358 429.291718,28.022158 428.940155,28.576954 
	C428.558655,27.998354 428.177155,27.419754 427.868195,26.457180 
	C427.961975,25.027845 427.983185,23.982485 428.004395,22.937126 
z"/>
<path fill="#BE0000" opacity="1.000000" stroke="none" 
	d="
M375.503357,21.056446 
	C371.214081,21.441334 366.469177,21.718128 361.724640,22.001440 
	C358.277557,22.207277 354.831055,22.421736 351.127441,22.987339 
	C350.237183,22.869343 349.603729,22.396357 348.970276,21.923370 
	C349.074646,21.599295 349.179016,21.275221 349.283386,20.951145 
	C357.871521,20.951145 366.459686,20.951145 375.503357,21.056446 
z"/>
<path fill="#BE0000" opacity="1.000000" stroke="none" 
	d="
M347.547729,84.828133 
	C349.513885,85.076256 351.149414,85.895523 352.804077,85.936172 
	C359.254211,86.094658 365.710449,86.006424 372.640381,86.023132 
	C370.461639,86.364578 367.812500,86.907494 365.151001,86.976593 
	C359.532135,87.122505 353.906006,87.057579 348.285950,86.935425 
	C347.919037,86.927437 347.578613,85.701149 347.547729,84.828133 
z"/>
<path fill="#BE0000" opacity="1.000000" stroke="none" 
	d="
M415.986481,106.461540 
	C422.173584,106.050972 428.602753,106.078217 435.029297,105.961456 
	C436.607391,105.932785 438.176910,105.434021 439.975098,104.751709 
	C440.805420,105.044006 441.411011,105.735970 442.382751,106.846283 
	C433.212555,106.846283 424.720062,106.846283 415.986481,106.461540 
z"/>
<path fill="#BE0000" opacity="1.000000" stroke="none" 
	d="
M420.485260,23.358517 
	C418.594666,23.070213 417.034088,22.119392 415.447937,22.074644 
	C409.247559,21.899714 403.039093,22.011276 396.356262,22.020298 
	C397.508331,21.657768 399.132141,21.007765 400.768250,20.975130 
	C407.008087,20.850666 413.252075,20.952402 419.494110,20.908716 
	C421.351135,20.895720 422.619843,21.034595 420.485260,23.358517 
z"/>
<path fill="#E3A6A8" opacity="1.000000" stroke="none" 
	d="
M427.795624,26.841160 
	C428.177155,27.419754 428.558655,27.998354 428.940155,28.576954 
	C429.291718,28.022158 429.643250,27.467358 430.037476,26.242653 
	C430.111816,25.349646 430.143433,25.126547 430.175079,24.903448 
	C430.175079,24.903448 430.643494,24.942926 430.876465,24.977303 
	C431.109650,25.451332 431.109833,25.890984 431.158997,26.928535 
	C431.214111,27.712063 431.220276,27.897690 431.226410,28.083324 
	C430.438385,28.744558 429.650360,29.405783 428.862335,30.067001 
	C428.260101,29.278358 427.657837,28.489723 427.264771,27.315767 
	C427.473907,26.930447 427.795624,26.841164 427.795624,26.841160 
z"/>
<path fill="#C9333B" opacity="1.000000" stroke="none" 
	d="
M292.306305,11.783258 
	C291.005157,11.632284 289.703979,11.481310 288.256287,11.033703 
	C289.194611,11.018939 290.279480,11.300806 291.781586,11.468306 
	C292.198853,11.353938 292.306305,11.783257 292.306305,11.783258 
z"/>
<path fill="#C9313A" opacity="1.000000" stroke="none" 
	d="
M284.298279,78.763901 
	C284.907501,78.241043 285.849640,77.711105 287.166260,77.230301 
	C286.570862,77.771896 285.601013,78.264359 284.298279,78.763901 
z"/>
<path fill="#BE0000" opacity="1.000000" stroke="none" 
	d="
M292.528381,11.703625 
	C292.306305,11.783257 292.198853,11.353938 292.089386,11.161638 
	C291.958069,10.795587 291.936218,10.621835 292.209808,10.205910 
	C292.718018,9.902614 292.866486,9.769695 292.950653,9.564983 
	C293.122101,9.516438 293.293549,9.467892 293.712219,9.520851 
	C293.556458,10.289568 293.153442,10.956780 292.528381,11.703625 
z"/>
<path fill="#D47275" opacity="1.000000" stroke="none" 
	d="
M427.868195,26.457184 
	C427.795624,26.841164 427.473907,26.930447 427.307251,26.927780 
	C427.199615,25.698153 427.258636,24.471189 427.661011,23.090675 
	C427.983185,23.982485 427.961975,25.027845 427.868195,26.457184 
z"/>
<path fill="#FCF4F4" opacity="1.000000" stroke="none" 
	d="
M431.446198,28.167355 
	C431.220276,27.897690 431.214111,27.712063 431.250031,27.250870 
	C431.775879,27.295055 432.259705,27.614809 432.743500,27.934555 
	C432.384338,28.040163 432.025146,28.145777 431.446198,28.167355 
z"/>
<path fill="#C9313A" opacity="1.000000" stroke="none" 
	d="
M338.359680,72.991547 
	C338.336304,72.573647 338.560120,72.023476 339.096832,71.440536 
	C339.142090,71.891609 338.874481,72.375443 338.359680,72.991547 
z"/>
<path fill="#C9313A" opacity="1.000000" stroke="none" 
	d="
M288.311646,77.090019 
	C288.491211,76.742958 288.975555,76.394646 289.770081,76.057663 
	C289.592346,76.408913 289.104370,76.748840 288.311646,77.090019 
z"/>
<path fill="#C9313A" opacity="1.000000" stroke="none" 
	d="
M335.356567,76.986237 
	C335.331848,76.570053 335.554169,76.018875 336.088593,75.428726 
	C336.134979,75.876923 335.869263,76.364090 335.356567,76.986237 
z"/>
<path fill="#C9313A" opacity="1.000000" stroke="none" 
	d="
M339.696838,71.222656 
	C339.573975,71.018013 339.662933,70.699112 340.005524,70.303635 
	C340.244629,70.561508 340.127808,70.855293 339.696838,71.222656 
z"/>
<path fill="#C21113" opacity="1.000000" stroke="none" 
	d="
M207.828323,28.442228 
	C208.043457,28.334707 208.378098,28.480518 208.837097,28.878592 
	C208.623581,28.985754 208.285721,28.840656 207.828323,28.442228 
z"/>
<path fill="#C9313A" opacity="1.000000" stroke="none" 
	d="
M337.472870,74.137741 
	C337.371094,73.929108 337.519379,73.624458 337.902039,73.202332 
	C337.998627,73.403816 337.860779,73.722778 337.472870,74.137741 
z"/>
<path fill="#C9313A" opacity="1.000000" stroke="none" 
	d="
M336.677490,75.217484 
	C336.555664,75.012207 336.649139,74.692856 336.994843,74.291710 
	C337.228241,74.547104 337.110138,74.844940 336.677490,75.217484 
z"/>
<path fill="#C9313A" opacity="1.000000" stroke="none" 
	d="
M290.310303,76.084213 
	C290.300110,75.920876 290.551392,75.759918 290.922546,75.728821 
	C290.885529,75.934647 290.728638,76.010620 290.310303,76.084213 
z"/>
<path fill="#C9313A" opacity="1.000000" stroke="none" 
	d="
M340.489685,70.145340 
	C340.386230,69.934288 340.534027,69.621651 340.920898,69.189514 
	C341.020233,69.394600 340.880585,69.719185 340.489685,70.145340 
z"/>
<path fill="#BF0005" opacity="1.000000" stroke="none" 
	d="
M131.219376,78.352631 
	C131.268890,78.100464 131.596069,78.014061 132.022614,78.139717 
	C131.913666,78.407310 131.705353,78.462852 131.219376,78.352631 
z"/>
<path fill="#BF0005" opacity="1.000000" stroke="none" 
	d="
M150.233185,78.348572 
	C150.055908,78.019142 150.226730,77.686180 150.628387,77.192795 
	C150.766571,77.469925 150.673935,77.907486 150.233185,78.348572 
z"/>
<path fill="#C21113" opacity="1.000000" stroke="none" 
	d="
M210.926208,31.360645 
	C211.146576,31.342182 211.452286,31.632801 211.827393,32.244232 
	C211.601730,32.266605 211.306656,31.968166 210.926208,31.360645 
z"/>
<path fill="#C21113" opacity="1.000000" stroke="none" 
	d="
M207.185059,28.071754 
	C207.269775,27.928270 207.531509,27.915127 207.792572,28.098328 
	C207.791885,28.294670 207.362076,28.202097 207.185059,28.071754 
z"/>
<path fill="#C2131D" opacity="1.000000" stroke="none" 
	d="
M292.761932,9.440971 
	C292.866486,9.769695 292.718018,9.902614 292.353027,9.985720 
	C292.062836,9.635991 292.186981,9.405744 292.761932,9.440971 
z"/>
<path fill="#FEFBFB" opacity="1.000000" stroke="none" 
	d="
M282.121582,58.299442 
	C275.167633,62.208504 268.873016,62.011410 262.923431,56.929993 
	C257.571075,52.358631 255.716309,46.469006 257.315979,39.880642 
	C258.932800,33.221714 263.576538,29.091654 270.342560,27.542105 
	C277.563629,25.888342 285.599609,30.050800 288.815887,37.092308 
	C292.265472,44.644562 289.861145,52.537365 282.121582,58.299442 
z"/>
<path fill="#FCF4F4" opacity="1.000000" stroke="none" 
	d="
M313.536804,10.630278 
	C314.456757,11.424978 314.889221,12.156638 315.604919,13.046228 
	C322.649323,22.177942 329.410522,31.151726 336.300293,40.296120 
	C328.655609,50.258419 321.105865,60.096985 313.109863,69.962219 
	C312.663574,69.988892 312.239197,69.777908 312.239197,69.777908 
	C312.239197,69.777908 312.125366,69.788521 312.123474,69.845634 
	C312.197479,51.881920 312.254669,33.860962 312.378815,15.840466 
	C312.390930,14.081267 312.816010,12.324913 313.536804,10.630278 
z"/>
<path fill="#C9333B" opacity="1.000000" stroke="none" 
	d="
M312.179321,69.983170 
	C312.239197,69.777908 312.663574,69.988892 312.823395,70.163910 
	C312.695312,70.288765 312.407379,70.238602 312.179321,69.983170 
z"/>
<path fill="#D47275" opacity="1.000000" stroke="none" 
	d="
M429.852356,24.949106 
	C430.143433,25.126547 430.111816,25.349646 430.036560,25.909075 
	C429.838531,25.828524 429.684113,25.411644 429.852356,24.949106 
z"/>
</svg>